<?xml version="1.0" encoding="UTF-8"?><svg id="a" xmlns="http://www.w3.org/2000/svg" xmlns:xlink="http://www.w3.org/1999/xlink" viewBox="0 0 120 120"><defs><style>.h{fill:none;}.i{fill:#fb9d29;}.j{clip-path:url(#c);}</style><clipPath id="c"><rect x="26.44" y="26.44" width="67.12" height="67.12" style="fill:none;"/></clipPath></defs><g id="b" transform="translate(3.71 313.298)"><g style="clip-path:url(#c);"><g id="d" transform="translate(0 0)"><path id="e" d="M63.47,76.92c-3.92,0-8.58-.76-12.22-3.6-7.64-5.96-11.38-21.62-8.35-34.9l.17-.76,.76-.16c.59-.12,14.54-2.93,28.02,10.28,9.89,9.69,6.01,19.52,2.82,24.52l-2.06-1.32c2.79-4.37,6.19-12.98-2.47-21.45-10.82-10.6-22.05-10.1-25.03-9.74-2.46,12.08,.96,26.4,7.65,31.62,5.76,4.5,14.76,2.94,17.39,2.35l.53,2.39c-2.37,.52-4.79,.79-7.21,.79" style="fill:#fb9d29;"/><path id="f" d="M75.47,81.97c-6.33-5.33-16.71-19.89-19.63-25.87l2.2-1.08c2.83,5.79,13.08,20.08,19.01,25.07l-1.58,1.87Z" style="fill:#fb9d29;"/><path id="g" d="M60,93.56c-18.53,0-33.56-15.03-33.56-33.56,0-18.53,15.03-33.56,33.56-33.56,18.53,0,33.56,15.03,33.56,33.56-.02,18.53-15.04,33.54-33.56,33.56m0-64.67c-17.18,0-31.11,13.93-31.11,31.11s13.93,31.11,31.11,31.11c17.18,0,31.11-13.93,31.11-31.11-.02-17.17-13.94-31.09-31.11-31.11" style="fill:#fb9d29;"/></g></g></g></svg>