<?xml version="1.0" encoding="UTF-8"?><svg id="a" xmlns="http://www.w3.org/2000/svg" xmlns:xlink="http://www.w3.org/1999/xlink" viewBox="0 0 120 120"><defs><style>.k{fill:none;}.l{fill:#fb9d29;}.m{clip-path:url(#c);}</style><clipPath id="c"><rect x="19.73" y="22.26" width="80.54" height="75.49" style="fill:none;"/></clipPath></defs><g id="b" transform="translate(0 145)"><g style="clip-path:url(#c);"><g id="d"><path id="e" d="M66.92,48c-1.48,0-2.96-.11-4.42-.34l-.85-.14-.24-.83c-.11-.39-2.66-9.76,5.65-19.48,6.45-7.53,13.87-4.66,16.76-3.08l-1.3,2.38c-3.51-1.92-8.68-3.06-13.4,2.46-6.01,7.03-5.63,13.82-5.27,16.13,7.81,.92,16.64-1.85,19.64-6.28,2.58-3.81,1.19-9.49,.71-11.14l2.6-.77c.57,1.94,2.19,8.63-1.06,13.42-3.11,4.6-10.97,7.65-18.81,7.65" style="fill:#fb9d29;"/><path id="f" d="M73.96,38.26l-1.35-2.35c3.67-2.11,12.56-9.44,15.56-13.53l2.19,1.6c-3.28,4.47-12.53,12.06-16.39,14.28" style="fill:#fb9d29;"/><path id="g" d="M75.26,97.75h0l-9.69-.05c-.61,0-1.14-.41-1.3-.99l-1.49-5.39c-5.08,.95-10.3,.9-15.36-.15l-1.57,5.44c-.17,.58-.7,.98-1.3,.98h0l-9.68-.05c-.75,0-1.35-.61-1.35-1.36,0-.02,0-.04,0-.07l.58-10.67c-3.25-2.29-5.96-5.25-7.96-8.69l-5.06-.03c-.75,0-1.35-.61-1.35-1.36h0l.08-13.54c0-.75,.61-1.35,1.35-1.35h2.83c1.11-3.96,3.22-7.59,6.14-10.51-.73-3.3-1.67-6.54-2.81-9.72-.24-.61,0-1.3,.55-1.65,.28-.17,6.89-4.12,15.44,3.38,3.95-1.29,8.09-1.93,12.25-1.88,1.08,0,2.18,.06,3.26,.15l-.23,2.7c-1-.09-2.03-.13-3.04-.14h-.21c-4.05-.01-8.07,.66-11.9,1.99-.48,.17-1,.06-1.37-.29-5.49-5.11-9.88-4.62-11.77-4.03,1.05,3.15,1.93,6.36,2.64,9.61,.1,.46-.04,.94-.38,1.27-3.08,2.89-5.23,6.64-6.17,10.77-.13,.63-.69,1.07-1.33,1.07h-2.55l-.06,10.81,4.51,.03c.5,0,.97,.28,1.2,.73,1.93,3.58,4.71,6.62,8.1,8.87,.39,.27,.62,.72,.59,1.19l-.55,10,7.24,.04,1.64-5.68c.2-.7,.92-1.11,1.62-.94,2.78,.68,5.63,1.02,8.49,1.04,2.75,.02,5.49-.27,8.17-.87,.7-.16,1.41,.27,1.6,.96l1.56,5.63,7.24,.04-.43-9.78c-.02-.48,.21-.94,.62-1.2,6.83-4.4,10.77-10.91,10.81-17.86,.03-5.98-2.81-11.67-8.01-16.04l1.74-2.08c5.83,4.9,9.02,11.34,8.98,18.13-.04,7.65-4.18,14.79-11.4,19.69l.46,10.43c.03,.75-.55,1.38-1.29,1.41-.02,0-.04,0-.06,0" style="fill:#fb9d29;"/><path id="h" d="M87.48,65.27c-.76,0-1.27-.03-1.36-.04-.75-.06-1.3-.71-1.25-1.45,.05-.74,.68-1.3,1.42-1.25h.03c.1,0,9.86,.67,11.04-4.5,.33-1.45,.4-3.35-1.17-4.14-.85-.46-1.88-.41-2.68,.13-.45,.42-.6,1.07-.41,1.65,.16,.24,.71,.08,.88,.03,.71-.24,1.48,.15,1.71,.85,.24,.71-.15,1.48-.85,1.71l-.05,.02c-1.42,.6-3.06,.13-3.96-1.13-.88-1.6-.63-3.58,.62-4.91,1.25-1.46,3.93-1.8,5.96-.77,1.14,.58,3.67,2.43,2.58,7.17-1.38,6.01-9.29,6.64-12.53,6.64" style="fill:#fb9d29;"/><path id="i" d="M73.14,59.18c-6.91-9.48-21.82-8.28-21.97-8.27l-.24-2.7c.67-.06,16.57-1.36,24.4,9.37l-2.19,1.6Z" style="fill:#fb9d29;"/><path id="j" d="M35.01,60.47c-.75,0-1.36-.6-1.36-1.35,0-.75,.6-1.36,1.35-1.36h0c.75,0,1.36,.61,1.36,1.35,0,.75-.61,1.36-1.35,1.36h0" style="fill:#fb9d29;"/></g></g></g></svg>