<?xml version="1.0" encoding="UTF-8"?><svg id="a" xmlns="http://www.w3.org/2000/svg" xmlns:xlink="http://www.w3.org/1999/xlink" viewBox="0 0 204.09 100"><defs><style>.d{fill:#fff;}.e{filter:url(#b);}</style><filter id="b" filterUnits="userSpaceOnUse"><feOffset dx="0" dy="0"/><feGaussianBlur result="c" stdDeviation="5"/><feFlood flood-color="#000" flood-opacity=".3"/><feComposite in2="c" operator="in"/><feComposite in="SourceGraphic"/></filter></defs><g style="filter:url(#b);"><path d="M30.69,5.45h14.13l-.33,8.9c5.93,.37,11.12,.96,15.57,1.78l-3.23,17.24h-16.68c-2.6,0-4.32,.41-5.17,1.22-.86,.82-1.32,2.38-1.39,4.68l7.01,.78c8.53,.96,14.4,3.15,17.63,6.56,3.23,3.41,4.84,7.82,4.84,13.23s-.56,9.73-1.67,12.96c-1.11,3.23-2.71,5.69-4.78,7.4-3.78,2.89-8.75,4.56-14.9,5l-.33,11.24h-14.35l.44-11.24c-7.05-.52-13.01-1.41-17.91-2.67l3.23-17.69c6.16,1.63,12.6,2.45,19.35,2.45,2.82,0,5.45-.15,7.9-.45v-4.67l-6.9-.78c-8.9-.89-14.83-3.49-17.8-7.78-2.6-3.78-3.89-8.71-3.89-14.8,0-8.01,1.65-13.83,4.95-17.46,3.29-3.63,7.95-5.86,13.96-6.68l.33-9.23Z" style="fill:#fff;"/><path d="M71.62,84.09l3.11-18.35c7.05,1.71,13.22,2.56,18.52,2.56s9.66-.22,13.07-.67v-5.56l-8.34-.89c-9.2-.96-15.45-2.54-18.74-4.73-3.3-2.19-4.95-6.1-4.95-11.74,0-.81,.37-10.46,1.11-28.92h50.61l-1.67,19.13-26.36-1.56v5.67l6.56,.78c9.71,1.19,16.42,3.58,20.13,7.18,3.71,3.59,5.56,8.62,5.56,15.07,0,4.67-.63,8.62-1.89,11.84-1.26,3.23-2.77,5.67-4.5,7.34-1.75,1.67-4.21,2.95-7.4,3.84-3.19,.89-5.99,1.43-8.4,1.61-2.41,.19-5.62,.28-9.62,.28-9.64,0-18.57-.96-26.81-2.89Z" style="fill:#fff;"/><path d="M142.97,77.7c-2.11-3.23-3.58-6.95-4.39-11.18s-1.22-9.55-1.22-15.96,.41-11.74,1.22-15.96,2.28-7.95,4.39-11.18c2.11-3.22,5.16-5.58,9.12-7.06,3.97-1.48,8.99-2.23,15.07-2.23s11.09,.74,15.02,2.23,6.97,3.84,9.12,7.06c2.15,3.23,3.62,6.95,4.39,11.18s1.17,9.57,1.17,16.02-.39,11.78-1.17,15.96c-.78,4.19-2.24,7.9-4.39,11.12-2.15,3.22-5.19,5.58-9.12,7.06-3.93,1.48-8.93,2.23-15.02,2.23s-11.1-.74-15.07-2.23c-3.96-1.48-7.01-3.84-9.12-7.06Zm17.3-39.77v31.14h4.67c3.34,0,5.67-.35,7.01-1.06,1.34-.7,2.01-2.31,2.01-4.84v-31.14h-5.23c-3.26,0-5.49,.33-6.67,1-1.19,.67-1.78,2.3-1.78,4.9Z" style="fill:#fff;"/></g></svg>