<?xml version="1.0" encoding="UTF-8"?><svg id="a" xmlns="http://www.w3.org/2000/svg" viewBox="0 0 326.84 84.48"><g id="b" transform="translate(1 111)" style="isolation:isolate;"><g style="isolation:isolate;"><path d="M54.84,49.17H17.04v33.6H0V2.73H17.04v31.44H54.84V2.73h17.16V82.77h-17.16V49.17Z" style="fill:none; stroke:#fff;"/><path d="M120.48,1.41c24.24,0,41.88,17.28,41.88,41.4s-17.64,41.4-41.88,41.4-41.76-17.28-41.76-41.4S96.36,1.41,120.48,1.41Zm0,15.12c-14.76,0-24.24,11.28-24.24,26.28s9.48,26.28,24.24,26.28,24.36-11.4,24.36-26.28-9.6-26.28-24.36-26.28Z" style="fill:none; stroke:#fff;"/><path d="M165.36,42.81c0-24.6,18.6-41.4,42-41.4,18.24,0,28.44,9.6,34.08,19.56l-14.64,7.2c-3.36-6.48-10.56-11.64-19.44-11.64-13.92,0-24.48,11.16-24.48,26.28s10.56,26.28,24.48,26.28c8.88,0,16.08-5.04,19.44-11.64l14.64,7.08c-5.76,9.96-15.84,19.68-34.08,19.68-23.4,0-42-16.8-42-41.4Z" style="fill:none; stroke:#fff;"/><path d="M284.4,1.41c24.24,0,41.88,17.28,41.88,41.4s-17.64,41.4-41.88,41.4-41.76-17.28-41.76-41.4S260.28,1.41,284.4,1.41Zm0,15.12c-14.76,0-24.24,11.28-24.24,26.28s9.48,26.28,24.24,26.28,24.36-11.4,24.36-26.28-9.6-26.28-24.36-26.28Z" style="fill:none; stroke:#fff;"/></g></g></svg>