<?xml version="1.0" encoding="UTF-8"?><svg id="a" xmlns="http://www.w3.org/2000/svg" xmlns:xlink="http://www.w3.org/1999/xlink" viewBox="0 0 120 120"><defs><style>.j{fill:none;}.k{fill:#fb9d29;}.l{clip-path:url(#c);}</style><clipPath id="c"><rect x="23.02" y="32.9" width="73.96" height="54.19" style="fill:none;"/></clipPath></defs><g id="b" transform="translate(1.353 0)"><g style="clip-path:url(#c);"><g id="d" transform="translate(0 0)"><path id="e" d="M72.37,87.1h-14.77c-.65,0-1.18-.52-1.18-1.17h0v-17.48h-16.3v17.48c0,.65-.53,1.17-1.18,1.17h-14.75c-.65,0-1.17-.53-1.17-1.17V51.09c0-.38,.19-.74,.5-.96l24.08-17.01c.41-.29,.95-.29,1.35,0l8.24,5.82-1.35,1.92-7.57-5.34-22.9,16.18v33.05h12.4v-17.47c0-.65,.53-1.17,1.18-1.17h18.65c.65,0,1.17,.53,1.17,1.17v17.47h12.42v-15.39h2.35v16.56c0,.65-.52,1.17-1.17,1.17h0" style="fill:#fb9d29;"/><path id="f" d="M80.47,66.9c-5.91,0-8.63-4.47-9.6-6.62l2.14-.96c1.33,2.95,4.12,6.21,9.86,4.96,7.29-1.6,10.38-6.12,11.31-7.83-4.61-4.41-11.67-6.93-15.78-5.54l-.76-2.22c5.13-1.74,13.57,1.26,18.8,6.7l.52,.54-.27,.7c-.12,.31-3.08,7.7-13.33,9.94-.96,.21-1.93,.33-2.91,.33" style="fill:#fb9d29;"/><path id="g" d="M84.02,58.17c-2.87-.23-5.76-.23-8.63,0l-.15-2.34c3.02-.24,6.06-.24,9.08,.01l-.3,2.33Z" style="fill:#fb9d29;"/><path id="h" d="M67.4,60.2l-.83-2.2c1.31-.49,5.66-2.37,6.86-5.9,1.4-4.1-1.12-11.16-5.54-15.78-1.72,.92-6.22,3.98-7.83,11.32-1.26,5.74,2,8.53,4.96,9.86l-.96,2.14c-2.47-1.11-8.03-4.55-6.29-12.51,2.24-10.25,9.63-13.21,9.94-13.33l.7-.27,.54,.52c5.44,5.24,8.45,13.67,6.7,18.8-1.49,4.38-6.27,6.6-8.26,7.35" style="fill:#fb9d29;"/><path id="i" d="M67.27,63.93l-2.25-.67c1.16-3.89,1.57-13.43,1.14-16.77l2.33-.3c.46,3.61,.07,13.39-1.22,17.74" style="fill:#fb9d29;"/></g></g></g></svg>