<?xml version="1.0" encoding="utf-8"?>
<!-- Generator: Adobe Illustrator 26.1.0, SVG Export Plug-In . SVG Version: 6.00 Build 0)  -->
<svg version="1.1" id="a" xmlns="http://www.w3.org/2000/svg" xmlns:xlink="http://www.w3.org/1999/xlink" x="0px" y="0px"
	 viewBox="0 0 120 120" style="enable-background:new 0 0 120 120;" xml:space="preserve">
<style type="text/css">
	.st0{clip-path:url(#SVGID_00000147938576688125507180000009516503549273053364_);}
	.st1{fill:#FB9D29;}
</style>
<g id="b" transform="translate(3.71 313.298)">
	<g>
		<defs>
			<rect id="SVGID_1_" x="22.7" y="-286.9" width="67.1" height="67.1"/>
		</defs>
		<clipPath id="SVGID_00000183949924561494402460000013636782036560388775_">
			<use xlink:href="#SVGID_1_"  style="overflow:visible;"/>
		</clipPath>
		<g style="clip-path:url(#SVGID_00000183949924561494402460000013636782036560388775_);">
			<g id="d" transform="translate(0 0)">
				<path id="e" class="st1" d="M59.8-236.4c-3.9,0-8.6-0.8-12.2-3.6c-7.6-6-11.4-21.6-8.3-34.9l0.2-0.8l0.8-0.2
					c0.6-0.1,14.5-2.9,28,10.3c9.9,9.7,6,19.5,2.8,24.5l-2.1-1.3c2.8-4.4,6.2-13-2.5-21.4c-10.8-10.6-22.1-10.1-25-9.7
					c-2.5,12.1,1,26.4,7.7,31.6c5.8,4.5,14.8,2.9,17.4,2.3l0.5,2.4C64.6-236.6,62.2-236.4,59.8-236.4"/>
				<path id="f" class="st1" d="M71.8-231.3c-6.3-5.3-16.7-19.9-19.6-25.9l2.2-1.1c2.8,5.8,13.1,20.1,19,25.1L71.8-231.3L71.8-231.3
					z"/>
				<path id="g" class="st1" d="M56.3-219.7c-18.5,0-33.6-15-33.6-33.6s15-33.6,33.6-33.6s33.6,15,33.6,33.6
					C89.8-234.8,74.8-219.8,56.3-219.7 M56.3-284.4c-17.2,0-31.1,13.9-31.1,31.1s13.9,31.1,31.1,31.1s31.1-13.9,31.1-31.1
					C87.4-270.5,73.5-284.4,56.3-284.4"/>
			</g>
		</g>
	</g>
</g>
</svg>
