<?xml version="1.0" encoding="utf-8"?>
<!-- Generator: Adobe Illustrator 26.1.0, SVG Export Plug-In . SVG Version: 6.00 Build 0)  -->
<svg version="1.1" id="a" xmlns="http://www.w3.org/2000/svg" xmlns:xlink="http://www.w3.org/1999/xlink" x="0px" y="0px"
	 viewBox="0 0 120 120" style="enable-background:new 0 0 120 120;" xml:space="preserve">
<style type="text/css">
	.st0{clip-path:url(#SVGID_00000116213063605634441740000017873087539476318646_);}
	.st1{fill:#FB9D29;}
</style>
<g id="b" transform="translate(0 145)">
	<g>
		<defs>
			<rect id="SVGID_1_" x="19.7" y="-122.7" width="80.5" height="75.5"/>
		</defs>
		<clipPath id="SVGID_00000041995080039196498040000011690617395689241761_">
			<use xlink:href="#SVGID_1_"  style="overflow:visible;"/>
		</clipPath>
		<g style="clip-path:url(#SVGID_00000041995080039196498040000011690617395689241761_);">
			<g id="d">
				<path id="e" class="st1" d="M66.9-97c-1.5,0-3-0.1-4.4-0.3l-0.8-0.1l-0.2-0.8c-0.1-0.4-2.7-9.8,5.7-19.5
					c6.4-7.5,13.9-4.7,16.8-3.1l-1.3,2.4c-3.5-1.9-8.7-3.1-13.4,2.5c-6,7-5.6,13.8-5.3,16.1c7.8,0.9,16.6-1.8,19.6-6.3
					c2.6-3.8,1.2-9.5,0.7-11.1l2.6-0.8c0.6,1.9,2.2,8.6-1.1,13.4C82.6-100.1,74.8-97,66.9-97"/>
				<path id="f" class="st1" d="M74-106.7l-1.3-2.3c3.7-2.1,12.6-9.4,15.6-13.5l2.2,1.6C87.1-116.6,77.8-109,74-106.7"/>
				<path id="g" class="st1" d="M75.3-47.3L75.3-47.3l-9.7-0.1c-0.6,0-1.1-0.4-1.3-1l-1.5-5.4c-5.1,0.9-10.3,0.9-15.4-0.2l-1.6,5.4
					c-0.2,0.6-0.7,1-1.3,1l0,0l-9.7-0.1c-0.8,0-1.3-0.6-1.3-1.4c0,0,0,0,0-0.1l0.6-10.7c-3.3-2.3-6-5.2-8-8.7l-5.1,0
					c-0.8,0-1.4-0.6-1.4-1.4l0,0l0.1-13.5c0-0.8,0.6-1.3,1.4-1.3H24c1.1-4,3.2-7.6,6.1-10.5c-0.7-3.3-1.7-6.5-2.8-9.7
					c-0.2-0.6,0-1.3,0.5-1.7c0.3-0.2,6.9-4.1,15.4,3.4c3.9-1.3,8.1-1.9,12.2-1.9c1.1,0,2.2,0.1,3.3,0.2l-0.2,2.7c-1-0.1-2-0.1-3-0.1
					h-0.2c-4.1,0-8.1,0.7-11.9,2c-0.5,0.2-1,0.1-1.4-0.3c-5.5-5.1-9.9-4.6-11.8-4c1,3.2,1.9,6.4,2.6,9.6c0.1,0.5,0,0.9-0.4,1.3
					c-3.1,2.9-5.2,6.6-6.2,10.8c-0.1,0.6-0.7,1.1-1.3,1.1h-2.5L22.4-71l4.5,0c0.5,0,1,0.3,1.2,0.7c1.9,3.6,4.7,6.6,8.1,8.9
					c0.4,0.3,0.6,0.7,0.6,1.2l-0.5,10l7.2,0l1.6-5.7c0.2-0.7,0.9-1.1,1.6-0.9c2.8,0.7,5.6,1,8.5,1c2.8,0,5.5-0.3,8.2-0.9
					c0.7-0.2,1.4,0.3,1.6,1l1.6,5.6l7.2,0l-0.4-9.8c0-0.5,0.2-0.9,0.6-1.2c6.8-4.4,10.8-10.9,10.8-17.9c0-6-2.8-11.7-8-16l1.7-2.1
					c5.8,4.9,9,11.3,9,18.1c0,7.7-4.2,14.8-11.4,19.7l0.5,10.4C76.7-47.9,76.1-47.3,75.3-47.3C75.3-47.3,75.3-47.3,75.3-47.3"/>
				<path id="h" class="st1" d="M87.5-79.7c-0.8,0-1.3,0-1.4,0c-0.8-0.1-1.3-0.7-1.2-1.5c0.1-0.7,0.7-1.3,1.4-1.2h0
					c0.1,0,9.9,0.7,11-4.5c0.3-1.4,0.4-3.3-1.2-4.1c-0.8-0.5-1.9-0.4-2.7,0.1c-0.4,0.4-0.6,1.1-0.4,1.7c0.2,0.2,0.7,0.1,0.9,0
					c0.7-0.2,1.5,0.2,1.7,0.8c0.2,0.7-0.2,1.5-0.8,1.7l-0.1,0c-1.4,0.6-3.1,0.1-4-1.1c-0.9-1.6-0.6-3.6,0.6-4.9
					c1.2-1.5,3.9-1.8,6-0.8c1.1,0.6,3.7,2.4,2.6,7.2C98.6-80.4,90.7-79.7,87.5-79.7"/>
				<path id="i" class="st1" d="M73.1-85.8c-6.9-9.5-21.8-8.3-22-8.3l-0.2-2.7c0.7-0.1,16.6-1.4,24.4,9.4
					C75.3-87.4,73.1-85.8,73.1-85.8z"/>
				<path id="j" class="st1" d="M35-84.5c-0.8,0-1.4-0.6-1.4-1.3s0.6-1.4,1.3-1.4l0,0c0.8,0,1.4,0.6,1.4,1.3
					C36.4-85.1,35.7-84.5,35-84.5L35-84.5"/>
			</g>
		</g>
	</g>
</g>
</svg>
