<?xml version="1.0" encoding="UTF-8"?><svg id="a" xmlns="http://www.w3.org/2000/svg" viewBox="0 0 1032 384"><rect x="790.75" y="144" width="123" height="24" style="fill:#fff;"/><rect x="790.75" y="168" width="123" height="24" style="fill:#fff;"/><rect x="790.75" y="144" width="123" height="24" style="fill:#fff;"/><rect x="217.75" y="0" width="24" height="312" style="fill:#fff;"/><rect x="193.75" width="24" height="312" style="fill:#fff;"/><rect x="97.75" y="48" width="24" height="168" style="fill:#fff;"/><rect x="97.75" width="24" height="72" style="fill:#fff;"/><rect x="193.75" width="24" height="72" style="fill:#fff;"/><rect x="121.75" width="24" height="312" style="fill:#fff;"/><rect x="217.75" width="24" height="144" style="fill:#fff;"/><rect x="97.75" y="192" width="24" height="120" style="fill:#fff;"/><rect x="217.75" y="192" width="24" height="120" style="fill:#fff;"/><circle cx="54.25" cy="76.5" r="22.5" style="fill:#fff;"/><rect x="1.75" y="144" width="240" height="24" style="fill:#fff;"/><rect x="1.75" y="168" width="240" height="24" style="fill:#fff;"/><rect x="1.75" y="144" width="240" height="24" style="fill:#fff;"/><rect x="265.75" width="24" height="312" transform="translate(555.49 312) rotate(180)" style="fill:#fff;"/><rect x="289.75" width="24" height="312" transform="translate(603.49 312) rotate(180)" style="fill:#fff;"/><rect x="289.75" y="240" width="24" height="72" transform="translate(603.49 552) rotate(180)" style="fill:#fff;"/><rect x="265.75" y="168" width="24" height="144" transform="translate(555.49 480) rotate(180)" style="fill:#fff;"/><rect x="265.75" width="24" height="120" transform="translate(555.49 120) rotate(180)" style="fill:#fff;"/><rect x="457.75" y="216" width="25.5" height="96" transform="translate(940.99 528) rotate(180)" style="fill:#fff;"/><rect x="483.25" y="216" width="25.5" height="96" transform="translate(991.99 528) rotate(180)" style="fill:#fff;"/><rect x="457.75" y="216" width="25.5" height="36.92" transform="translate(940.99 468.92) rotate(180)" style="fill:#fff;"/><rect x="265.75" y="288" width="240" height="24" transform="translate(771.49 600) rotate(180)" style="fill:#fff;"/><rect x="265.75" y="264" width="240" height="24" transform="translate(771.49 552) rotate(180)" style="fill:#fff;"/><rect x="265.75" y="288" width="240" height="24" transform="translate(771.49 600) rotate(180)" style="fill:#fff;"/><rect x="549.25" y="216" width="25.5" height="96" style="fill:#fff;"/><rect x="523.75" y="216" width="25.5" height="96" style="fill:#fff;"/><rect x="549.25" y="216" width="25.5" height="36.92" style="fill:#fff;"/><rect x="526.75" y="288" width="240" height="24" style="fill:#fff;"/><rect x="526.75" y="264" width="240" height="24" style="fill:#fff;"/><rect x="526.75" y="288" width="240" height="24" style="fill:#fff;"/><rect x="454.75" y="0" width="25.5" height="96" transform="translate(934.99 96) rotate(-180)" style="fill:#fff;"/><rect x="480.25" y="0" width="25.5" height="96" transform="translate(985.99 96) rotate(-180)" style="fill:#fff;"/><rect x="454.75" y="59.08" width="25.5" height="36.92" transform="translate(934.99 155.08) rotate(-180)" style="fill:#fff;"/><rect x="265.75" y="0" width="240" height="24" transform="translate(771.49 24) rotate(-180)" style="fill:#fff;"/><rect x="265.75" y="24" width="240" height="24" transform="translate(771.49 72) rotate(-180)" style="fill:#fff;"/><rect x="265.75" y="0" width="240" height="24" transform="translate(771.49 24) rotate(-180)" style="fill:#fff;"/><rect x="526.75" y="0" width="25.5" height="96" transform="translate(1078.99 96) rotate(-180)" style="fill:#fff;"/><rect x="552.25" y="0" width="25.5" height="96" transform="translate(1129.99 96) rotate(-180)" style="fill:#fff;"/><rect x="526.75" y="59.08" width="25.5" height="36.92" transform="translate(1078.99 155.08) rotate(-180)" style="fill:#fff;"/><rect x="526.75" y="72" width="25.5" height="96" transform="translate(1078.99 240) rotate(-180)" style="fill:#fff;"/><rect x="552.25" y="72" width="25.5" height="96" transform="translate(1129.99 240) rotate(-180)" style="fill:#fff;"/><rect x="715.75" y="117" width="25.5" height="96" transform="translate(1456.99 330) rotate(-180)" style="fill:#fff;"/><rect x="741.25" y="117" width="25.5" height="96" transform="translate(1507.99 330) rotate(-180)" style="fill:#fff;"/><rect x="715.75" y="176.08" width="25.5" height="36.92" transform="translate(1456.99 389.08) rotate(-180)" style="fill:#fff;"/><rect x="715.75" y="189" width="25.5" height="96" transform="translate(1456.99 474) rotate(-180)" style="fill:#fff;"/><rect x="741.25" y="189" width="25.5" height="96" transform="translate(1507.99 474) rotate(-180)" style="fill:#fff;"/><rect x="608.5" y="35.25" width="25.5" height="189" transform="translate(491.5 751) rotate(-90)" style="fill:#fff;"/><rect x="608.5" y="60.75" width="25.5" height="189" transform="translate(466 776.5) rotate(-90)" style="fill:#fff;"/><rect x="741.25" y="0" width="25.5" height="96" transform="translate(1507.99 96) rotate(-180)" style="fill:#fff;"/><rect x="741.25" y="0" width="25.5" height="96" transform="translate(1507.99 96) rotate(-180)" style="fill:#fff;"/><rect x="715.5" y="48" width="25.5" height="48" transform="translate(1456.5 144) rotate(-180)" style="fill:#fff;"/><rect x="526.75" y="0" width="240" height="24" transform="translate(1293.49 24) rotate(-180)" style="fill:#fff;"/><rect x="526.75" y="24" width="240" height="24" transform="translate(1293.49 72) rotate(-180)" style="fill:#fff;"/><rect x="526.75" y="0" width="240" height="24" transform="translate(1293.49 24) rotate(-180)" style="fill:#fff;"/><rect x="790.75" width="24" height="312" transform="translate(1605.49 312) rotate(180)" style="fill:#fff;"/><rect x="814.75" width="24" height="312" transform="translate(1653.49 312) rotate(180)" style="fill:#fff;"/><rect x="790.75" width="24" height="120" transform="translate(1605.49 120) rotate(180)" style="fill:#fff;"/><rect x="792" y="0" width="240" height="24" transform="translate(1824 24) rotate(-180)" style="fill:#fff;"/><rect x="792" y="24" width="240" height="24" transform="translate(1824 72) rotate(-180)" style="fill:#fff;"/><rect x="792" y="0" width="240" height="24" transform="translate(1824 24) rotate(-180)" style="fill:#fff;"/><g style="opacity:.8;"><path d="M155.85,383.35v-9.6h-6.52v9.6h-8.69v-27.15h8.69v9.6h6.52v-9.6h8.69v27.15h-8.69Z" style="fill:#fff;"/><path d="M173.66,369.8c0-4.95,.93-8.56,2.78-10.84,1.85-2.27,5.2-3.41,10.03-3.41s8.18,1.14,10.03,3.41c1.85,2.27,2.78,5.89,2.78,10.84,0,2.46-.2,4.53-.59,6.21s-1.06,3.14-2.02,4.39c-.96,1.25-2.27,2.16-3.95,2.74-1.68,.58-3.76,.87-6.25,.87s-4.58-.29-6.25-.87c-1.68-.58-3-1.49-3.95-2.74-.96-1.25-1.63-2.71-2.02-4.39-.39-1.68-.59-3.75-.59-6.21Zm9.34-4.52v11.29h3.61c1.19,0,2.05-.14,2.58-.41,.54-.28,.8-.91,.8-1.89v-11.29h-3.65c-1.16,0-2.01,.14-2.54,.41-.54,.28-.8,.91-.8,1.89Z" style="fill:#fff;"/><path d="M232.82,356.2h9.08l-4.26,27.15h-11.34l-2-9.99h-.52l-1.95,9.99h-11.34l-4.26-27.15h9.08l2.04,15.16h.26l3.13-15.16h6.65l3.08,15.16h.26l2.08-15.16Z" style="fill:#fff;"/><path d="M255.97,383.35h-9.17l7.04-27.15h13.42l7.04,27.15h-9.17l-1-4.3h-7.17l-1,4.3Zm4.34-18.81l-1.78,7.6h4l-1.74-7.6h-.48Z" style="fill:#fff;"/><path d="M305.71,383.35h-9.56l-3.56-8.08h-1.87v8.08h-8.69v-27.15h13.68c6.23,0,9.34,3.17,9.34,9.51,0,4.34-1.35,7.21-4.04,8.6l4.69,9.04Zm-14.99-20.2v5.43h2c1.04,0,1.8-.11,2.28-.33,.48-.22,.72-.72,.72-1.5v-1.78c0-.78-.24-1.28-.72-1.5-.48-.22-1.24-.33-2.28-.33h-2Z" style="fill:#fff;"/><path d="M314.83,383.35v-27.15h12.16c4.89,0,8.25,1.04,10.08,3.13,1.82,2.09,2.74,5.57,2.74,10.45s-.91,8.36-2.74,10.45c-1.82,2.08-5.18,3.13-10.08,3.13h-12.16Zm12.29-20.2h-3.61v13.25h3.61c1.19,0,2.05-.14,2.58-.41,.54-.28,.8-.91,.8-1.89v-8.64c0-.98-.27-1.61-.8-1.89-.54-.28-1.4-.41-2.58-.41Z" style="fill:#fff;"/><path d="M379.55,375.57l.65,7.3c-1.82,.75-4.11,1.13-6.86,1.13s-4.96-.29-6.62-.87c-1.67-.58-2.98-1.49-3.93-2.74-.96-1.25-1.62-2.71-2-4.39s-.56-3.75-.56-6.21,.19-4.54,.56-6.23,1.04-3.16,2-4.41c1.85-2.4,5.26-3.6,10.21-3.6,1.1,0,2.4,.11,3.89,.33,1.49,.22,2.6,.49,3.32,.8l-1.3,6.65c-1.88-.41-3.61-.61-5.17-.61s-2.65,.15-3.26,.43c-.61,.29-.91,.87-.91,1.74v11.38c1.13,.23,2.27,.35,3.43,.35,2.46,0,4.65-.35,6.56-1.04Z" style="fill:#fff;"/><path d="M388.02,369.8c0-4.95,.93-8.56,2.78-10.84,1.85-2.27,5.2-3.41,10.03-3.41s8.18,1.14,10.03,3.41c1.85,2.27,2.78,5.89,2.78,10.84,0,2.46-.2,4.53-.59,6.21-.39,1.68-1.06,3.14-2.02,4.39-.96,1.25-2.27,2.16-3.95,2.74-1.68,.58-3.76,.87-6.25,.87s-4.58-.29-6.26-.87c-1.68-.58-3-1.49-3.95-2.74s-1.63-2.71-2.02-4.39c-.39-1.68-.59-3.75-.59-6.21Zm9.34-4.52v11.29h3.6c1.19,0,2.05-.14,2.58-.41,.54-.28,.8-.91,.8-1.89v-11.29h-3.65c-1.16,0-2.01,.14-2.54,.41-.54,.28-.8,.91-.8,1.89Z" style="fill:#fff;"/><path d="M430.8,356.2v20.37h3.08c1.1,0,1.85-.14,2.26-.41,.41-.28,.61-.91,.61-1.89v-18.07h8.69v15.25c0,2.46-.16,4.45-.48,5.95-.32,1.51-.91,2.78-1.78,3.82s-2.06,1.77-3.56,2.17c-1.51,.41-3.46,.61-5.86,.61s-4.35-.2-5.84-.61c-1.49-.41-2.67-1.13-3.54-2.17-.87-1.04-1.46-2.32-1.78-3.82-.32-1.51-.48-3.49-.48-5.95v-15.25h8.69Z" style="fill:#fff;"/><path d="M471.15,383.35l-6.65-9.64c-.23-.32-.38-1.01-.43-2.09h-.17v11.73h-8.69v-27.15h8.17l6.65,9.64c.23,.32,.38,1.01,.43,2.09h.17v-11.73h8.69v27.15h-8.17Z" style="fill:#fff;"/><path d="M509.07,363.15h-6.3v20.2h-8.69v-20.2h-6.3v-6.95h21.28v6.95Z" style="fill:#fff;"/><path d="M524.97,356.2l2.39,9.56h.3l2.43-9.56h9.6l-7.82,19.76v7.38h-8.69v-7.38l-7.82-19.76h9.6Z" style="fill:#fff;"/><path d="M559.46,382.87l1.22-7.17c2.66,.67,5.06,1,7.19,1s3.84-.09,5.15-.26v-2.17l-3.91-.35c-3.53-.32-5.96-1.17-7.28-2.54-1.32-1.38-1.98-3.41-1.98-6.1,0-3.71,.8-6.25,2.41-7.64s4.34-2.08,8.19-2.08,7.33,.36,10.42,1.09l-1.09,6.95c-2.69-.43-4.85-.65-6.47-.65s-3,.07-4.13,.22v2.13l3.13,.3c3.79,.38,6.41,1.28,7.86,2.71,1.45,1.43,2.17,3.42,2.17,5.97,0,1.82-.25,3.37-.74,4.63-.49,1.26-1.08,2.22-1.76,2.87-.68,.65-1.64,1.15-2.89,1.5-1.25,.35-2.34,.56-3.28,.63-.94,.07-2.19,.11-3.76,.11-3.76,0-7.25-.38-10.47-1.13Z" style="fill:#fff;"/><path d="M590.39,369.8c0-4.95,.93-8.56,2.78-10.84,1.85-2.27,5.2-3.41,10.03-3.41s8.18,1.14,10.03,3.41c1.85,2.27,2.78,5.89,2.78,10.84,0,2.46-.2,4.53-.59,6.21-.39,1.68-1.06,3.14-2.02,4.39-.96,1.25-2.27,2.16-3.95,2.74-1.68,.58-3.76,.87-6.25,.87s-4.58-.29-6.26-.87c-1.68-.58-3-1.49-3.95-2.74s-1.63-2.71-2.02-4.39c-.39-1.68-.59-3.75-.59-6.21Zm9.34-4.52v11.29h3.6c1.19,0,2.05-.14,2.58-.41,.54-.28,.8-.91,.8-1.89v-11.29h-3.65c-1.16,0-2.01,.14-2.54,.41-.54,.28-.8,.91-.8,1.89Z" style="fill:#fff;"/><path d="M642.51,383.35h-17.37v-27.15h8.69v20.2h8.69v6.95Z" style="fill:#fff;"/><path d="M653.97,383.35h-9.17l7.04-27.15h13.42l7.04,27.15h-9.17l-1-4.3h-7.17l-1,4.3Zm4.34-18.81l-1.78,7.6h4l-1.74-7.6h-.48Z" style="fill:#fff;"/><path d="M703.71,383.35h-9.56l-3.56-8.08h-1.87v8.08h-8.69v-27.15h13.68c6.23,0,9.34,3.17,9.34,9.51,0,4.34-1.35,7.21-4.04,8.6l4.69,9.04Zm-14.99-20.2v5.43h2c1.04,0,1.8-.11,2.28-.33,.48-.22,.72-.72,.72-1.5v-1.78c0-.78-.24-1.28-.72-1.5-.48-.22-1.24-.33-2.28-.33h-2Z" style="fill:#fff;"/><path d="M741.5,373.27h-7.38v10.08h-8.69v-27.15h17.81l-1.09,6.95h-8.04v3.65h7.38v6.47Z" style="fill:#fff;"/><path d="M757.09,383.35h-9.17l7.04-27.15h13.42l7.04,27.15h-9.17l-1-4.3h-7.17l-1,4.3Zm4.34-18.81l-1.78,7.6h4l-1.74-7.6h-.48Z" style="fill:#fff;"/><path d="M806.82,383.35h-9.56l-3.56-8.08h-1.87v8.08h-8.69v-27.15h13.68c6.23,0,9.34,3.17,9.34,9.51,0,4.34-1.35,7.21-4.04,8.6l4.69,9.04Zm-14.99-20.2v5.43h2c1.04,0,1.8-.11,2.28-.33,.48-.22,.72-.72,.72-1.5v-1.78c0-.78-.24-1.28-.72-1.5-.48-.22-1.24-.33-2.28-.33h-2Z" style="fill:#fff;"/><path d="M823.94,383.35h-9.08l1.65-27.15h11.34l3.39,13.81h.3l3.39-13.81h11.34l1.65,27.15h-9.08l-.52-13.16h-.3l-3.3,13.16h-6.65l-3.34-13.16h-.26l-.52,13.16Z" style="fill:#fff;"/></g><g><path d="M854.94,303.42h-1.74v5.58h-2.4v-5.58h-1.74v-1.92h5.88v1.92Z" style="fill:#fff;"/><path d="M857.81,309h-2.51l.46-7.5h3.13l.94,3.82h.08l.94-3.82h3.13l.46,7.5h-2.51l-.14-3.64h-.08l-.91,3.64h-1.84l-.92-3.64h-.07l-.14,3.64Z" style="fill:#fff;"/></g></svg>