<?xml version="1.0" encoding="UTF-8"?><svg xmlns="http://www.w3.org/2000/svg" viewBox="0 0 312 144"><g style="isolation:isolate;"><g id="a"><g><rect x="24" y="73.89" width="27" height="7.11" style="fill:#fbb03b;"/><rect x="24" y="30" width="24" height="7.92" style="fill:#fbb03b;"/><rect x="29.33" y="51.62" width="24.67" height="7.92" style="fill:#fbb03b;"/><rect x="195.9" y="30" width="3.92" height="51" style="fill:#fbb03b;"/><rect x="191.49" y="30" width="4.62" height="51" style="fill:#fbb03b;"/><g style="mix-blend-mode:multiply;"><rect x="195.9" y="61.38" width="3.92" height="19.62" style="fill:#fbb03b;"/></g><g style="mix-blend-mode:multiply;"><rect x="195.9" y="30" width="3.92" height="51" style="fill:#fbb03b;"/></g><g style="mix-blend-mode:multiply;"><rect x="160.13" y="73.15" width="35.78" height="7.85" style="fill:#fbb03b;"/></g><g style="mix-blend-mode:multiply;"><rect x="160.11" y="73.16" width="39.72" height="3.43" style="fill:#fbb03b;"/></g><g><path d="M31.87,96.61l1.96,7.83h.25l1.99-7.83h7.87l-6.41,16.2v6.05h-7.12v-6.05l-6.41-16.2h7.87Z" style="fill:#444;"/><path d="M44.02,117.06c-1.48-1.55-2.23-3.92-2.23-7.1s.74-5.55,2.23-7.1c1.48-1.55,3.89-2.33,7.21-2.33s5.73,.78,7.21,2.33c1.48,1.55,2.23,3.92,2.23,7.1s-.74,5.55-2.23,7.1c-1.48,1.55-3.89,2.33-7.21,2.33s-5.73-.78-7.21-2.33Zm5.43-9.84v6.98h1.1c.85,0,1.48-.09,1.87-.27,.39-.18,.59-.59,.59-1.23v-6.98h-1.1c-.85,0-1.48,.09-1.87,.27s-.59,.59-.59,1.23Z" style="fill:#444;"/><path d="M68.86,101.06v13.14h1.1c.85,0,1.48-.09,1.87-.27,.39-.18,.59-.59,.59-1.23v-11.64h7.12v17.8h-3.56l-2.06-2.03c-1.42,1.71-3.45,2.56-6.09,2.56-2.11,0-3.65-.45-4.63-1.35-.97-.9-1.46-2.41-1.46-4.52v-12.46h7.12Z" style="fill:#444;"/><path d="M81.67,101.06h3.56l1.96,1.99c1.4-1.28,3.16-2.12,5.27-2.53l.43,6.73c-.57,.02-1.31,.17-2.23,.43-.91,.26-1.54,.59-1.87,1v10.18h-7.12v-17.8Z" style="fill:#444;"/><path d="M104.45,112.81v1.25c.71,.07,1.42,.11,2.14,.11,2.21,0,4.44-.36,6.69-1.07l.85,5.23c-2.66,.71-5.29,1.07-7.9,1.07-3.32,0-5.73-.78-7.21-2.33-1.48-1.55-2.23-3.92-2.23-7.1s.74-5.55,2.23-7.1c1.48-1.55,3.88-2.33,7.19-2.33s5.59,.45,6.85,1.35c1.26,.9,1.89,2.59,1.89,5.06,0,2.09-.75,3.59-2.26,4.5-1.51,.91-4.25,1.37-8.24,1.37Zm0-5.59v1.46h1.46c.85,0,1.48-.09,1.87-.27,.39-.18,.59-.59,.59-1.23v-1.46h-1.46c-.85,0-1.48,.09-1.87,.27s-.59,.59-.59,1.23Z" style="fill:#444;"/><path d="M119.76,101.06l1.78,1.78c2.21-1.54,4.58-2.31,7.12-2.31,1.66,0,2.97,.36,3.92,1.09,.95,.72,1.42,1.73,1.42,3.01v14.24h-7.12v-12.46h-1.1c-.81,0-1.42,.09-1.83,.27-.42,.18-.62,.54-.62,1.09v11.11h-7.12v-17.8h3.56Z" style="fill:#444;"/><path d="M142.9,112.81v1.25c.71,.07,1.42,.11,2.14,.11,2.21,0,4.44-.36,6.69-1.07l.85,5.23c-2.66,.71-5.29,1.07-7.9,1.07-3.32,0-5.73-.78-7.21-2.33-1.48-1.55-2.23-3.92-2.23-7.1s.74-5.55,2.23-7.1c1.48-1.55,3.88-2.33,7.19-2.33s5.59,.45,6.85,1.35c1.26,.9,1.89,2.59,1.89,5.06,0,2.09-.75,3.59-2.26,4.5-1.51,.91-4.25,1.37-8.24,1.37Zm0-5.59v1.46h1.46c.85,0,1.48-.09,1.87-.27,.39-.18,.59-.59,.59-1.23v-1.46h-1.46c-.85,0-1.48,.09-1.87,.27s-.59,.59-.59,1.23Z" style="fill:#444;"/><path d="M154.65,101.06h3.56l1.96,1.99c1.4-1.28,3.16-2.12,5.27-2.53l.43,6.73c-.57,.02-1.31,.17-2.22,.43-.91,.26-1.54,.59-1.87,1v10.18h-7.12v-17.8Z" style="fill:#444;"/><path d="M165.61,123.66l.93-5.3c2.02,.69,4.38,1.03,7.08,1.03,.81,0,1.38-.02,1.71-.07v-1.25c-2.11,0-3.49-.09-4.15-.27-.65-.18-1.08-.36-1.28-.53-.2-.18-.32-.33-.36-.45-.04-.12-.05-.28-.05-.5l1.07-3.06c-1.71-.31-3.01-.95-3.9-1.92-.89-.97-1.33-2.5-1.33-4.57s.7-3.64,2.1-4.68c1.4-1.04,3.68-1.57,6.83-1.57,1.14,0,2.15,.07,3.03,.21l3.1-2.39,3.74,3.6-2.03,2.39c.31,.83,.46,1.9,.46,3.2,0,1.88-.47,3.27-1.41,4.18-.94,.91-2.6,1.47-5,1.66l-.14,.85c2.56,.14,4.37,.53,5.43,1.16,1.06,.63,1.58,1.79,1.58,3.47,0,2.87-1.39,4.65-4.17,5.34-1.38,.36-3.23,.53-5.57,.53s-4.89-.36-7.67-1.07Zm6.41-16.91v2.31h1.1c.85,0,1.48-.09,1.87-.27,.39-.18,.59-.59,.59-1.23v-2.31h-1.1c-.85,0-1.48,.09-1.87,.27-.39,.18-.59,.59-.59,1.23Z" style="fill:#444;"/><path d="M186.44,117.01l-3.99-15.95h7.12l1.96,11.57h.36l1.96-11.57h7.12l-4.45,17.8c-.66,2.33-1.5,3.89-2.49,4.68-1,.79-2.43,1.19-4.31,1.19h-6.91v-4.63l3.35-.64c1.71-.38,2.82-.81,3.35-1.28,.28-.26,.52-.58,.71-.96l-.04-.21h-3.74Z" style="fill:#444;"/><path d="M218.3,113.52l.43,5.13c-1.23,.5-2.83,.75-4.77,.75-3.32,0-5.73-.78-7.21-2.33-1.48-1.55-2.22-3.92-2.22-7.1s.74-5.55,2.22-7.1c1.48-1.55,3.89-2.33,7.21-2.33,2.06,0,3.65,.25,4.77,.75l-.85,4.84c-1.26-.26-2.25-.39-2.99-.39-1.8,0-2.71,.63-2.71,1.89v6.37c.69,.14,1.57,.21,2.65,.21s2.24-.23,3.47-.68Z" style="fill:#444;"/><path d="M221.66,117.06c-1.48-1.55-2.22-3.92-2.22-7.1s.74-5.55,2.22-7.1c1.48-1.55,3.89-2.33,7.21-2.33s5.73,.78,7.21,2.33c1.48,1.55,2.22,3.92,2.22,7.1s-.74,5.55-2.22,7.1c-1.48,1.55-3.89,2.33-7.21,2.33s-5.73-.78-7.21-2.33Zm5.43-9.84v6.98h1.1c.85,0,1.48-.09,1.87-.27,.39-.18,.59-.59,.59-1.23v-6.98h-1.1c-.85,0-1.48,.09-1.87,.27s-.59,.59-.59,1.23Z" style="fill:#444;"/><path d="M241.42,101.77c1.53-.83,3.62-1.25,6.28-1.25s5.1,.37,7.33,1.1l-.82,4.84c-1.85-.52-3.7-.78-5.55-.78-.57,0-1.38,.05-2.42,.14v1.14c3.84,0,6.46,.57,7.83,1.71,.69,.57,1.17,1.19,1.46,1.87s.43,1.5,.43,2.46-.11,1.82-.34,2.58c-.23,.76-.57,1.36-1.03,1.82-.46,.45-.94,.82-1.44,1.1-.5,.28-1.15,.49-1.96,.6-1.26,.19-2.72,.29-4.38,.29-2.94,0-5.6-.34-7.97-1.03l.89-5.06c1.99,.62,4.15,.93,6.48,.93,1.07,0,2.04-.05,2.92-.14v-1.14c-3.8,0-6.41-.5-7.85-1.5-1.44-1-2.15-2.65-2.15-4.97s.77-3.89,2.3-4.72Z" style="fill:#444;"/><path d="M255.96,105.65v-4.59h1.78v-2.85l7.12-1.78v4.63h2.46v4.59h-2.46v8.12c.62,.12,1.32,.2,2.1,.25l-.32,5.23c-3.25,0-5.36-.18-6.34-.53-1.21-.43-1.97-1-2.28-1.71-.19-.43-.28-.93-.28-1.5v-9.86h-1.78Z" style="fill:#444;"/><path d="M270.25,101.77c1.53-.83,3.62-1.25,6.28-1.25s5.1,.37,7.33,1.1l-.82,4.84c-1.85-.52-3.7-.78-5.55-.78-.57,0-1.38,.05-2.42,.14v1.14c3.84,0,6.46,.57,7.83,1.71,.69,.57,1.17,1.19,1.46,1.87s.43,1.5,.43,2.46-.11,1.82-.34,2.58c-.23,.76-.57,1.36-1.03,1.82-.46,.45-.94,.82-1.44,1.1-.5,.28-1.15,.49-1.96,.6-1.26,.19-2.72,.29-4.38,.29-2.94,0-5.6-.34-7.97-1.03l.89-5.06c1.99,.62,4.15,.93,6.48,.93,1.07,0,2.04-.05,2.92-.14v-1.14c-3.8,0-6.41-.5-7.85-1.5-1.44-1-2.15-2.65-2.15-4.97s.77-3.89,2.3-4.72Z" style="fill:#444;"/></g><g style="mix-blend-mode:multiply;"><rect x="213.4" y="53.54" width="11.77" height="3.92" style="fill:#fbb03b;"/></g><g style="mix-blend-mode:multiply;"><rect x="212.42" y="53.54" width="12.75" height="3.92" style="fill:#fbb03b;"/></g><g style="mix-blend-mode:multiply;"><rect x="221.24" y="53.54" width="3.92" height="7.85" style="fill:#fbb03b;"/></g><g style="mix-blend-mode:multiply;"><rect x="212.42" y="57.46" width="12.75" height="3.92" style="fill:#fbb03b;"/></g><rect x="205.06" y="30" width="3.92" height="51" transform="translate(414.04 111) rotate(180)" style="fill:#fbb03b;"/><rect x="208.78" y="30" width="4.62" height="51" transform="translate(422.18 111) rotate(180)" style="fill:#fbb03b;"/><g style="mix-blend-mode:multiply;"><rect x="205.06" y="30" width="3.92" height="19.62" transform="translate(414.04 79.62) rotate(180)" style="fill:#fbb03b;"/></g><g style="mix-blend-mode:multiply;"><rect x="205.06" y="30" width="3.92" height="51" transform="translate(414.05 111) rotate(180)" style="fill:#fbb03b;"/></g><rect x="240.61" y="30" width="4.17" height="15.69" transform="translate(485.38 75.69) rotate(-180)" style="fill:#fbb03b;"/><rect x="236.44" y="30" width="4.17" height="15.69" style="fill:#fbb03b;"/><g style="mix-blend-mode:multiply;"><rect x="208.98" y="30" width="35.78" height="7.85" transform="translate(453.74 67.85) rotate(-180)" style="fill:#fbb03b;"/></g><rect x="236.44" y="30" width="4.17" height="15.69" style="fill:#fbb03b;"/><g style="mix-blend-mode:multiply;"><rect x="205.06" y="34.41" width="39.72" height="3.43" transform="translate(449.84 72.25) rotate(-180)" style="fill:#fbb03b;"/></g><g style="mix-blend-mode:multiply;"><rect x="256.62" y="53.54" width="11.77" height="3.92" style="fill:#fbb03b;"/></g><g style="mix-blend-mode:multiply;"><rect x="255.63" y="53.54" width="12.75" height="3.92" style="fill:#fbb03b;"/></g><g style="mix-blend-mode:multiply;"><rect x="264.46" y="53.54" width="3.92" height="7.85" style="fill:#fbb03b;"/></g><g style="mix-blend-mode:multiply;"><rect x="255.63" y="57.46" width="12.75" height="3.92" style="fill:#fbb03b;"/></g><rect x="248.28" y="30" width="3.92" height="51" transform="translate(500.48 111) rotate(180)" style="fill:#fbb03b;"/><rect x="252" y="30" width="4.62" height="51" transform="translate(508.61 111) rotate(180)" style="fill:#fbb03b;"/><g style="mix-blend-mode:multiply;"><rect x="248.28" y="30" width="3.92" height="19.62" transform="translate(500.48 79.62) rotate(180)" style="fill:#fbb03b;"/></g><g style="mix-blend-mode:multiply;"><rect x="248.28" y="30" width="3.92" height="51" transform="translate(500.48 111) rotate(180)" style="fill:#fbb03b;"/></g><rect x="283.82" y="30" width="4.17" height="15.69" transform="translate(571.82 75.69) rotate(-180)" style="fill:#fbb03b;"/><rect x="279.66" y="30" width="4.17" height="15.69" style="fill:#fbb03b;"/><g style="mix-blend-mode:multiply;"><rect x="252.2" y="30" width="35.78" height="7.85" transform="translate(540.18 67.85) rotate(-180)" style="fill:#fbb03b;"/></g><rect x="279.66" y="30" width="4.17" height="15.69" style="fill:#fbb03b;"/><g style="mix-blend-mode:multiply;"><rect x="248.28" y="34.41" width="39.72" height="3.43" transform="translate(536.28 72.25) rotate(-180)" style="fill:#fbb03b;"/></g><rect x="160.11" y="30" width="3.92" height="51" transform="translate(324.14 111) rotate(180)" style="fill:#fbb03b;"/><rect x="163.82" y="30" width="4.62" height="51" transform="translate(332.27 111) rotate(180)" style="fill:#fbb03b;"/><g style="mix-blend-mode:multiply;"><rect x="160.11" y="30" width="3.92" height="19.62" transform="translate(324.14 79.62) rotate(180)" style="fill:#fbb03b;"/></g><g style="mix-blend-mode:multiply;"><rect x="160.11" y="30" width="3.92" height="51" transform="translate(324.14 111) rotate(180)" style="fill:#fbb03b;"/></g><g style="mix-blend-mode:multiply;"><rect x="164.03" y="30" width="35.78" height="7.85" transform="translate(363.84 67.85) rotate(-180)" style="fill:#fbb03b;"/></g><g style="mix-blend-mode:multiply;"><rect x="160.11" y="34.41" width="39.72" height="3.43" transform="translate(359.93 72.25) rotate(-180)" style="fill:#fbb03b;"/></g><rect x="42.98" y="30" width="3.96" height="51" transform="translate(89.92 111) rotate(180)" style="fill:#fbb03b;"/><rect x="46.24" y="30" width="4.66" height="51" transform="translate(97.14 111) rotate(180)" style="fill:#fbb03b;"/><g style="mix-blend-mode:multiply;"><rect x="42.98" y="30" width="3.96" height="19.76" transform="translate(89.92 79.76) rotate(180)" style="fill:#fbb03b;"/></g><g style="mix-blend-mode:multiply;"><rect x="42.98" y="30.03" width="3.96" height="50.97" transform="translate(89.92 111.03) rotate(180)" style="fill:#fbb03b;"/></g><g style="mix-blend-mode:multiply;"><rect x="46.94" y="30" width="3.96" height="51" transform="translate(97.84 111) rotate(180)" style="fill:#fbb03b;"/></g><rect x="97.87" y="30" width="3.92" height="51" style="fill:#fbb03b;"/><rect x="93.45" y="30" width="4.62" height="51" style="fill:#fbb03b;"/><g style="mix-blend-mode:multiply;"><rect x="97.77" y="61.51" width="3.9" height="19.49" style="fill:#fbb03b;"/></g><g style="mix-blend-mode:multiply;"><rect x="97.87" y="30" width="3.92" height="51" style="fill:#fbb03b;"/></g><g style="mix-blend-mode:multiply;"><rect x="62.21" y="73.2" width="35.55" height="7.8" style="fill:#fbb03b;"/></g><g style="mix-blend-mode:multiply;"><rect x="62.19" y="73.21" width="39.47" height="3.41" style="fill:#fbb03b;"/></g><rect x="62.07" y="30" width="3.92" height="51" transform="translate(128.06 111) rotate(180)" style="fill:#fbb03b;"/><rect x="65.79" y="30" width="4.62" height="51" transform="translate(136.19 111) rotate(180)" style="fill:#fbb03b;"/><g style="mix-blend-mode:multiply;"><rect x="62.07" y="30" width="3.92" height="19.62" transform="translate(128.06 79.62) rotate(180)" style="fill:#fbb03b;"/></g><g style="mix-blend-mode:multiply;"><rect x="62.07" y="30" width="3.92" height="51" transform="translate(128.06 111) rotate(180)" style="fill:#fbb03b;"/></g><polygon points="130.61 30 134.54 30 119.88 81 115.96 81 130.61 30" style="fill:#fbb03b;"/><polygon points="134.33 30 138.95 30 124.3 81 119.68 81 134.33 30" style="fill:#fbb03b;"/><g style="mix-blend-mode:multiply;"><polygon points="130.61 30 134.54 30 119.88 81 115.96 81 130.61 30" style="fill:#fbb03b;"/></g><g style="mix-blend-mode:multiply;"><rect x="65.99" y="30" width="35.78" height="7.85" transform="translate(167.76 67.85) rotate(-180)" style="fill:#fbb03b;"/></g><g style="mix-blend-mode:multiply;"><rect x="62.07" y="34.41" width="39.72" height="3.43" transform="translate(163.86 72.25) rotate(-180)" style="fill:#fbb03b;"/></g><circle cx="139.29" cy="69.48" r="3.68" style="fill:#fbb03b;"/><circle cx="114.77" cy="39.56" r="3.68" style="fill:#fbb03b;"/><circle cx="76.16" cy="45" r="3.65" style="fill:#fbb03b;"/><circle cx="183.91" cy="64.87" r="3.68" style="fill:#fbb03b;"/></g><g><path d="M24.33,11.5l.36-2.15c.8,.2,1.51,.3,2.15,.3s1.15-.03,1.54-.08v-.65l-1.17-.1c-1.06-.09-1.78-.35-2.18-.76-.39-.41-.59-1.02-.59-1.83,0-1.11,.24-1.87,.72-2.29s1.3-.62,2.45-.62,2.19,.11,3.12,.32l-.32,2.08c-.81-.13-1.45-.19-1.94-.19s-.9,.02-1.24,.06v.64l.94,.09c1.14,.11,1.92,.38,2.35,.81,.43,.43,.65,1.02,.65,1.79,0,.55-.07,1.01-.22,1.38-.15,.38-.32,.66-.53,.86-.2,.2-.49,.34-.86,.45-.37,.1-.7,.17-.98,.19s-.66,.03-1.12,.03c-1.13,0-2.17-.11-3.13-.34Z" style="fill:#fbb03b;"/><path d="M35.23,4.95c2.08,0,3.12,.71,3.12,2.15v4.55h-1.3l-.74-.74c-.25,.29-.59,.52-1.03,.69-.43,.16-.84,.25-1.23,.25s-.7-.03-.93-.09-.46-.16-.69-.31c-.49-.31-.74-.89-.74-1.74,0-1.56,1.18-2.34,3.54-2.34h.52v-.47c-.28-.02-.51-.03-.69-.03-.98,0-1.82,.12-2.52,.35l-.31-1.86c.87-.27,1.87-.4,3-.4Zm-.91,4.46v.53h.53c.38,0,.63-.04,.73-.13s.16-.2,.16-.34v-.61h-.53c-.31,0-.54,.03-.68,.1-.14,.07-.21,.21-.21,.45Z" style="fill:#fbb03b;"/><path d="M40.5,11.64l-1.62-6.5h2.6l.71,4.22h.13l.72-4.22h2.6l-1.62,6.5h-3.51Z" style="fill:#fbb03b;"/><path d="M48.82,9.43v.46c.26,.03,.52,.04,.78,.04,.81,0,1.62-.13,2.44-.39l.31,1.91c-.97,.26-1.93,.39-2.89,.39-1.21,0-2.09-.28-2.63-.85-.54-.57-.81-1.43-.81-2.59s.27-2.03,.81-2.59c.54-.57,1.42-.85,2.63-.85s2.04,.16,2.5,.49c.46,.33,.69,.94,.69,1.85,0,.76-.28,1.31-.83,1.64-.55,.33-1.55,.5-3.01,.5Zm0-2.04v.53h.53c.31,0,.54-.03,.68-.1,.14-.07,.21-.21,.21-.45v-.53h-.53c-.31,0-.54,.03-.68,.1s-.21,.22-.21,.45Z" style="fill:#fbb03b;"/><path d="M58.05,5.14v4.8h.4c.31,0,.54-.03,.68-.1,.14-.06,.21-.21,.21-.45V5.14h2.6v6.5h-1.3l-.75-.74c-.52,.62-1.26,.94-2.22,.94-.77,0-1.33-.17-1.69-.49-.36-.33-.53-.88-.53-1.65V5.14h2.6Z" style="fill:#fbb03b;"/><path d="M63.25,5.14h1.3l.48,.65c.38-.56,1.09-.84,2.12-.84,.53,0,.98,.1,1.37,.3,.38,.2,.67,.47,.87,.82,.37,.65,.56,1.43,.56,2.33,0,1.1-.24,1.93-.72,2.5-.19,.22-.45,.4-.77,.54-.32,.14-.69,.21-1.12,.21h-1.5v1.95l-2.6,.19V5.14Zm2.6,2.18v2.61h.4c.31,0,.54-.03,.68-.1,.14-.06,.21-.21,.21-.45v-2.55h-.4c-.19,0-.34,0-.46,.03-.11,.02-.21,.06-.3,.14-.09,.07-.13,.18-.14,.32Z" style="fill:#fbb03b;"/><path d="M72.54,6.82v-1.68h.65v-1.04l2.6-.65v1.69h.9v1.68h-.9v2.96c.23,.04,.48,.07,.77,.09l-.12,1.91c-1.19,0-1.96-.06-2.31-.19-.44-.16-.72-.36-.83-.62-.07-.16-.1-.34-.1-.55v-3.6h-.65Z" style="fill:#fbb03b;"/><path d="M78.21,10.99c-.54-.57-.81-1.43-.81-2.59s.27-2.03,.81-2.59c.54-.57,1.42-.85,2.63-.85s2.09,.28,2.63,.85c.54,.57,.81,1.43,.81,2.59s-.27,2.03-.81,2.59-1.42,.85-2.63,.85-2.09-.28-2.63-.85Zm1.98-3.59v2.55h.4c.31,0,.54-.03,.68-.1,.14-.06,.21-.21,.21-.45v-2.55h-.4c-.31,0-.54,.03-.68,.1s-.21,.22-.21,.45Z" style="fill:#fbb03b;"/></g><g><line x1="15" y1="6" x2="14" y2="6" style="fill:none; stroke:#fbb03b; stroke-miterlimit:10;"/><path d="M12,6c-3.33,.08-6,2.81-6,6.15v119.69c0,3.4,2.76,6.16,6.16,6.16H299.84c3.4,0,6.16-2.76,6.16-6.16V12.16c0-3.4-2.76-6.16-6.16-6.16H98" style="fill:none; stroke:#fbb03b; stroke-dasharray:0 0 2 2; stroke-miterlimit:10;"/><line x1="97" y1="6" x2="96" y2="6" style="fill:none; stroke:#fbb03b; stroke-miterlimit:10;"/></g></g></g></svg>