<?xml version="1.0" encoding="UTF-8"?><svg xmlns="http://www.w3.org/2000/svg" viewBox="0 0 312 144"><g style="isolation:isolate;"><g id="a"><g><rect x="12" y="76.06" width="26.74" height="8.91" style="fill:#fbb03b;"/><path d="M29.83,27.04h-13.37l-4.46,8.91H29.83v-8.91Z" style="fill:#fbb03b;"/><rect x="189.45" y="28.21" width="4.46" height="57.94" style="fill:#fbb03b;"/><rect x="184.44" y="28.21" width="5.25" height="57.94" style="fill:#fbb03b;"/><g style="mix-blend-mode:multiply;"><rect x="189.45" y="63.86" width="4.46" height="22.28" style="fill:#fbb03b;"/></g><g style="mix-blend-mode:multiply;"><rect x="189.45" y="28.21" width="4.46" height="57.94" style="fill:#fbb03b;"/></g><g style="mix-blend-mode:multiply;"><rect x="148.81" y="77.23" width="40.64" height="8.91" style="fill:#fbb03b;"/></g><g style="mix-blend-mode:multiply;"><rect x="148.79" y="77.23" width="45.12" height="3.89" style="fill:#fbb03b;"/></g><g><path d="M28.79,111.19h-7.46v2.84h9.14v5.97H13.87v-23.32H30.28l-.93,5.97h-8.02v3.13h7.46v5.41Z" style="fill:#1a1a1a;"/><path d="M45.62,96.68h7.87l-5.78,23.32h-10.9l-5.78-23.32h7.87l3.17,14.81h.34l3.21-14.81Z" style="fill:#1a1a1a;"/><path d="M69.53,111.19h-7.46v2.84h9.14v5.97h-16.6v-23.32h16.42l-.93,5.97h-8.02v3.13h7.46v5.41Z" style="fill:#1a1a1a;"/><path d="M87.33,120l-5.71-8.28c-.2-.27-.32-.87-.37-1.79h-.15v10.07h-7.46v-23.32h7.01l5.71,8.28c.2,.27,.32,.87,.37,1.79h.15v-10.07h7.46v23.32h-7.01Z" style="fill:#1a1a1a;"/><path d="M102.18,120v-23.32h7.46v23.32h-7.46Z" style="fill:#1a1a1a;"/><path d="M126.43,111.34h-6.34v8.66h-7.46v-23.32h15.3l-.93,5.97h-6.9v3.13h6.34v5.56Z" style="fill:#1a1a1a;"/><path d="M140.65,96.68l2.05,8.21h.26l2.09-8.21h8.25l-6.72,16.98v6.34h-7.46v-6.34l-6.72-16.98h8.25Z" style="fill:#1a1a1a;"/><path d="M153.3,108.36c0-4.25,.8-7.36,2.39-9.31,1.59-1.95,4.46-2.93,8.62-2.93s7.03,.98,8.62,2.93c1.59,1.95,2.39,5.06,2.39,9.31,0,2.11-.17,3.89-.5,5.34-.34,1.44-.91,2.7-1.74,3.77-.82,1.07-1.95,1.85-3.4,2.35-1.44,.5-3.23,.75-5.37,.75s-3.93-.25-5.37-.75c-1.44-.5-2.57-1.28-3.39-2.35-.82-1.07-1.4-2.33-1.74-3.77-.34-1.44-.5-3.22-.5-5.34Zm8.02-3.88v9.7h3.1c1.02,0,1.76-.12,2.22-.35,.46-.24,.69-.78,.69-1.62v-9.7h-3.13c-1,0-1.72,.12-2.18,.35-.46,.24-.69,.78-.69,1.62Z" style="fill:#1a1a1a;"/><path d="M184.08,96.68v17.5h2.65c.95,0,1.59-.12,1.94-.35,.35-.24,.52-.78,.52-1.62v-15.52h7.46v13.1c0,2.11-.14,3.82-.41,5.11-.27,1.29-.78,2.39-1.53,3.28s-1.77,1.52-3.06,1.87c-1.29,.35-2.97,.52-5.04,.52s-3.74-.17-5.02-.52c-1.28-.35-2.29-.97-3.04-1.87s-1.26-1.99-1.53-3.28c-.27-1.29-.41-3-.41-5.11v-13.1h7.46Z" style="fill:#1a1a1a;"/><path d="M224.26,120h-8.21l-3.06-6.94h-1.6v6.94h-7.46v-23.32h11.75c5.35,0,8.02,2.72,8.02,8.17,0,3.73-1.16,6.19-3.47,7.39l4.03,7.76Zm-12.87-17.35v4.66h1.72c.9,0,1.55-.09,1.96-.28,.41-.19,.62-.62,.62-1.29v-1.53c0-.67-.21-1.1-.62-1.29-.41-.19-1.06-.28-1.96-.28h-1.72Z" style="fill:#1a1a1a;"/><path d="M241.05,111.19h-7.46v2.84h9.14v5.97h-16.6v-23.32h16.42l-.93,5.97h-8.02v3.13h7.46v5.41Z" style="fill:#1a1a1a;"/><path d="M258.85,120l-5.71-8.28c-.2-.27-.32-.87-.37-1.79h-.15v10.07h-7.46v-23.32h7.01l5.71,8.28c.2,.27,.32,.87,.37,1.79h.15v-10.07h7.46v23.32h-7.01Z" style="fill:#1a1a1a;"/><path d="M285.46,102.65h-5.41v17.35h-7.46v-17.35h-5.41v-5.97h18.28v5.97Z" style="fill:#1a1a1a;"/><path d="M286.84,119.37c-.55-.57-.82-1.59-.82-3.06s.27-2.5,.82-3.1c.55-.6,1.62-.9,3.23-.9s2.68,.3,3.23,.9c.55,.6,.82,1.63,.82,3.1s-.27,2.49-.82,3.06c-.55,.57-1.62,.86-3.23,.86s-2.68-.29-3.23-.86Z" style="fill:#1a1a1a;"/></g><g style="mix-blend-mode:multiply;"><rect x="209.32" y="54.94" width="13.37" height="4.46" style="fill:#fbb03b;"/></g><g style="mix-blend-mode:multiply;"><rect x="208.21" y="54.94" width="14.48" height="4.46" style="fill:#fbb03b;"/></g><g style="mix-blend-mode:multiply;"><rect x="218.24" y="54.94" width="4.46" height="8.91" style="fill:#fbb03b;"/></g><g style="mix-blend-mode:multiply;"><rect x="208.21" y="59.4" width="14.48" height="4.46" style="fill:#fbb03b;"/></g><rect x="199.85" y="28.21" width="4.46" height="57.94" transform="translate(404.17 114.35) rotate(180)" style="fill:#fbb03b;"/><rect x="204.08" y="28.21" width="5.25" height="57.94" transform="translate(413.4 114.35) rotate(180)" style="fill:#fbb03b;"/><g style="mix-blend-mode:multiply;"><rect x="199.85" y="28.21" width="4.46" height="22.28" transform="translate(404.17 78.69) rotate(180)" style="fill:#fbb03b;"/></g><g style="mix-blend-mode:multiply;"><rect x="199.85" y="28.21" width="4.46" height="57.94" transform="translate(404.17 114.35) rotate(180)" style="fill:#fbb03b;"/></g><rect x="240.23" y="28.21" width="4.74" height="17.83" transform="translate(485.2 74.24) rotate(-180)" style="fill:#fbb03b;"/><rect x="235.5" y="28.21" width="4.74" height="17.83" style="fill:#fbb03b;"/><g style="mix-blend-mode:multiply;"><rect x="204.31" y="28.21" width="40.64" height="8.91" transform="translate(449.26 65.32) rotate(-180)" style="fill:#fbb03b;"/></g><rect x="235.5" y="28.21" width="4.74" height="17.83" style="fill:#fbb03b;"/><g style="mix-blend-mode:multiply;"><rect x="199.85" y="33.22" width="45.12" height="3.89" transform="translate(444.83 70.33) rotate(-180)" style="fill:#fbb03b;"/></g><g style="mix-blend-mode:multiply;"><rect x="258.42" y="54.94" width="13.37" height="4.46" style="fill:#fbb03b;"/></g><g style="mix-blend-mode:multiply;"><rect x="257.31" y="54.94" width="14.48" height="4.46" style="fill:#fbb03b;"/></g><g style="mix-blend-mode:multiply;"><rect x="267.33" y="54.94" width="4.46" height="8.91" style="fill:#fbb03b;"/></g><g style="mix-blend-mode:multiply;"><rect x="257.31" y="59.4" width="14.48" height="4.46" style="fill:#fbb03b;"/></g><rect x="248.95" y="28.21" width="4.46" height="57.94" transform="translate(502.36 114.35) rotate(180)" style="fill:#fbb03b;"/><rect x="253.17" y="28.21" width="5.25" height="57.94" transform="translate(511.59 114.35) rotate(180)" style="fill:#fbb03b;"/><g style="mix-blend-mode:multiply;"><rect x="248.95" y="28.21" width="4.46" height="22.28" transform="translate(502.36 78.69) rotate(180)" style="fill:#fbb03b;"/></g><g style="mix-blend-mode:multiply;"><rect x="248.95" y="28.21" width="4.46" height="57.94" transform="translate(502.36 114.35) rotate(180)" style="fill:#fbb03b;"/></g><rect x="289.33" y="28.21" width="4.74" height="17.83" transform="translate(583.39 74.24) rotate(-180)" style="fill:#fbb03b;"/><rect x="284.59" y="28.21" width="4.74" height="17.83" style="fill:#fbb03b;"/><g style="mix-blend-mode:multiply;"><rect x="253.41" y="28.21" width="40.64" height="8.91" transform="translate(547.45 65.32) rotate(-180)" style="fill:#fbb03b;"/></g><rect x="284.59" y="28.21" width="4.74" height="17.83" style="fill:#fbb03b;"/><g style="mix-blend-mode:multiply;"><rect x="248.95" y="33.22" width="45.12" height="3.89" transform="translate(543.02 70.33) rotate(-180)" style="fill:#fbb03b;"/></g><rect x="148.79" y="28.21" width="4.46" height="57.94" transform="translate(302.03 114.35) rotate(180)" style="fill:#fbb03b;"/><rect x="153.01" y="28.21" width="5.25" height="57.94" transform="translate(311.27 114.35) rotate(180)" style="fill:#fbb03b;"/><g style="mix-blend-mode:multiply;"><rect x="148.79" y="28.21" width="4.46" height="22.28" transform="translate(302.03 78.69) rotate(180)" style="fill:#fbb03b;"/></g><g style="mix-blend-mode:multiply;"><rect x="148.79" y="28.21" width="4.46" height="57.94" transform="translate(302.03 114.35) rotate(180)" style="fill:#fbb03b;"/></g><g style="mix-blend-mode:multiply;"><rect x="153.24" y="28.21" width="40.64" height="8.91" transform="translate(347.13 65.32) rotate(-180)" style="fill:#fbb03b;"/></g><g style="mix-blend-mode:multiply;"><rect x="148.79" y="33.22" width="45.12" height="3.89" transform="translate(342.7 70.33) rotate(-180)" style="fill:#fbb03b;"/></g><rect x="20.91" y="27" width="4.46" height="57.94" transform="translate(46.28 111.94) rotate(180)" style="fill:#fbb03b;"/><rect x="24.58" y="27" width="5.25" height="57.94" transform="translate(54.41 111.94) rotate(180)" style="fill:#fbb03b;"/><g style="mix-blend-mode:multiply;"><rect x="20.91" y="27" width="4.46" height="22.28" transform="translate(46.28 76.28) rotate(180)" style="fill:#fbb03b;"/></g><g style="mix-blend-mode:multiply;"><rect x="20.91" y="27.04" width="4.46" height="57.9" transform="translate(46.28 111.97) rotate(180)" style="fill:#fbb03b;"/></g><g style="mix-blend-mode:multiply;"><rect x="25.37" y="27" width="4.46" height="57.94" transform="translate(55.2 111.94) rotate(180)" style="fill:#fbb03b;"/></g><rect x="80.52" y="27.04" width="4.46" height="57.94" style="fill:#fbb03b;"/><rect x="75.51" y="27.04" width="5.25" height="57.94" style="fill:#fbb03b;"/><g style="mix-blend-mode:multiply;"><rect x="80.52" y="62.69" width="4.46" height="22.28" style="fill:#fbb03b;"/></g><g style="mix-blend-mode:multiply;"><rect x="80.52" y="27.04" width="4.46" height="57.94" style="fill:#fbb03b;"/></g><g style="mix-blend-mode:multiply;"><rect x="39.88" y="76.06" width="40.64" height="8.91" style="fill:#fbb03b;"/></g><g style="mix-blend-mode:multiply;"><rect x="39.85" y="76.06" width="45.12" height="3.89" style="fill:#fbb03b;"/></g><rect x="39.85" y="27.04" width="4.46" height="57.94" transform="translate(84.16 112.01) rotate(180)" style="fill:#fbb03b;"/><rect x="44.08" y="27.04" width="5.25" height="57.94" transform="translate(93.4 112.01) rotate(180)" style="fill:#fbb03b;"/><g style="mix-blend-mode:multiply;"><rect x="39.85" y="27.04" width="4.46" height="22.28" transform="translate(84.16 76.36) rotate(180)" style="fill:#fbb03b;"/></g><g style="mix-blend-mode:multiply;"><rect x="39.85" y="27.04" width="4.46" height="57.94" transform="translate(84.16 112.01) rotate(180)" style="fill:#fbb03b;"/></g><polygon points="112.73 27.04 117.18 27.04 100.54 84.97 96.08 84.97 112.73 27.04" style="fill:#fbb03b;"/><polygon points="116.95 27.04 122.2 27.04 105.55 84.97 100.3 84.97 116.95 27.04" style="fill:#fbb03b;"/><g style="mix-blend-mode:multiply;"><polygon points="112.73 27.04 117.18 27.04 100.54 84.97 96.08 84.97 112.73 27.04" style="fill:#fbb03b;"/></g><g style="mix-blend-mode:multiply;"><rect x="44.31" y="27.04" width="40.64" height="8.91" transform="translate(129.26 62.99) rotate(-180)" style="fill:#fbb03b;"/></g><g style="mix-blend-mode:multiply;"><rect x="39.85" y="32.05" width="45.12" height="3.89" transform="translate(124.83 67.99) rotate(-180)" style="fill:#fbb03b;"/></g><circle cx="122.58" cy="71.88" r="4.18" style="fill:#fbb03b;"/><circle cx="94.73" cy="37.9" r="4.18" style="fill:#fbb03b;"/><circle cx="55.82" cy="43.82" r="4.18" style="fill:#fbb03b;"/><circle cx="175.82" cy="67.82" r="4.18" style="fill:#fbb03b;"/></g><g><path d="M26.88,9.06h-2.38v3.25h-2.8V3.56h5.74l-.35,2.24h-2.59v1.18h2.38v2.09Z" style="fill:#fbb03b;"/><path d="M27.86,7.94c0-1.6,.3-2.76,.9-3.49,.6-.73,1.68-1.1,3.23-1.1s2.64,.37,3.23,1.1c.6,.73,.9,1.9,.9,3.49,0,.79-.06,1.46-.19,2-.13,.54-.34,1.01-.65,1.41-.31,.4-.73,.7-1.27,.88-.54,.19-1.21,.28-2.02,.28s-1.48-.09-2.02-.28c-.54-.19-.97-.48-1.27-.88s-.52-.87-.65-1.41c-.13-.54-.19-1.21-.19-2Zm3.01-1.46v3.64h1.16c.38,0,.66-.04,.83-.13,.17-.09,.26-.29,.26-.61v-3.64h-1.18c-.37,0-.65,.04-.82,.13-.17,.09-.26,.29-.26,.61Z" style="fill:#fbb03b;"/><path d="M44.73,12.31h-3.08l-1.15-2.6h-.6v2.6h-2.8V3.56h4.41c2.01,0,3.01,1.02,3.01,3.07,0,1.4-.43,2.32-1.3,2.77l1.51,2.91Zm-4.83-6.51v1.75h.64c.34,0,.58-.04,.73-.11,.15-.07,.23-.23,.23-.48v-.57c0-.25-.08-.41-.23-.48-.15-.07-.4-.1-.73-.1h-.64Z" style="fill:#fbb03b;"/><path d="M54.04,5.8h-2.03v6.51h-2.8V5.8h-2.03V3.56h6.86v2.24Z" style="fill:#fbb03b;"/><path d="M59.71,12.31v-3.09h-2.1v3.09h-2.8V3.56h2.8v3.09h2.1V3.56h2.8V12.31h-2.8Z" style="fill:#fbb03b;"/><path d="M69.51,9.01h-2.8v1.06h3.43v2.24h-6.23V3.56h6.16l-.35,2.24h-3.01v1.18h2.8v2.03Z" style="fill:#fbb03b;"/><path d="M73.08,12.16l.39-2.31c.86,.21,1.63,.32,2.32,.32s1.24-.03,1.66-.08v-.7l-1.26-.11c-1.14-.1-1.92-.38-2.35-.82-.42-.44-.64-1.1-.64-1.97,0-1.19,.26-2.02,.78-2.46,.52-.45,1.4-.67,2.64-.67s2.36,.12,3.36,.35l-.35,2.24c-.87-.14-1.56-.21-2.09-.21s-.97,.02-1.33,.07v.69l1.01,.1c1.22,.12,2.07,.41,2.53,.88,.47,.46,.7,1.1,.7,1.92,0,.59-.08,1.08-.24,1.49-.16,.41-.35,.71-.57,.92s-.53,.37-.93,.48c-.4,.11-.75,.18-1.06,.2s-.71,.04-1.21,.04c-1.21,0-2.34-.12-3.37-.36Z" style="fill:#fbb03b;"/><path d="M84.08,12.31h-2.93l.53-8.75h3.65l1.09,4.45h.1l1.09-4.45h3.65l.53,8.75h-2.93l-.17-4.24h-.1l-1.06,4.24h-2.14l-1.08-4.24h-.08l-.17,4.24Z" style="fill:#fbb03b;"/><path d="M94.95,12.31h-2.95l2.27-8.75h4.33l2.27,8.75h-2.95l-.32-1.39h-2.31l-.32,1.39Zm1.4-6.06l-.57,2.45h1.29l-.56-2.45h-.15Z" style="fill:#fbb03b;"/><path d="M109.02,12.31h-3.08l-1.15-2.6h-.6v2.6h-2.8V3.56h4.41c2.01,0,3.01,1.02,3.01,3.07,0,1.4-.43,2.32-1.3,2.77l1.51,2.91Zm-4.83-6.51v1.75h.64c.34,0,.58-.04,.73-.11,.15-.07,.23-.23,.23-.48v-.57c0-.25-.08-.41-.23-.48-.15-.07-.4-.1-.73-.1h-.64Z" style="fill:#fbb03b;"/><path d="M116.23,5.8h-2.03v6.51h-2.8V5.8h-2.03V3.56h6.86v2.24Z" style="fill:#fbb03b;"/><path d="M124.54,13.92l-.35-1.9c-1.13,.34-2.04,.5-2.72,.5-1.63,0-2.45-.91-2.45-2.73,0-1.54,.58-2.39,1.74-2.56v-.06l-1.19-.41c0-1.24,.22-2.09,.67-2.53,.44-.45,1.1-.67,1.97-.67s1.78,.1,2.71,.29l-.41,2.06h-1.25c-.31,0-.53,.04-.66,.12-.13,.08-.2,.24-.2,.47v.46h5.14l-.31,1.96h-.98v4.79l-1.72,.21Zm-1.46-3.79c.27,0,.52-.02,.76-.06l-.21-1.15h-1.22v.57c0,.42,.22,.63,.67,.63Z" style="fill:#fbb03b;"/><path d="M136.72,5.8h-2.03v6.51h-2.8V5.8h-2.03V3.56h6.86v2.24Z" style="fill:#fbb03b;"/><path d="M142.39,12.31v-3.09h-2.1v3.09h-2.8V3.56h2.8v3.09h2.1V3.56h2.8V12.31h-2.8Z" style="fill:#fbb03b;"/><path d="M154.22,12.31h-3.08l-1.15-2.6h-.6v2.6h-2.8V3.56h4.41c2.01,0,3.01,1.02,3.01,3.07,0,1.4-.43,2.32-1.3,2.77l1.51,2.91Zm-4.83-6.51v1.75h.64c.34,0,.58-.04,.74-.11,.15-.07,.23-.23,.23-.48v-.57c0-.25-.08-.41-.23-.48-.15-.07-.4-.1-.74-.1h-.64Z" style="fill:#fbb03b;"/><path d="M155.2,12.31V3.56h2.8V12.31h-2.8Z" style="fill:#fbb03b;"/><path d="M164.58,9.06h-2.38v3.25h-2.8V3.56h5.74l-.35,2.24h-2.59v1.18h2.38v2.09Z" style="fill:#fbb03b;"/><path d="M172.21,5.8h-2.03v6.51h-2.8V5.8h-2.03V3.56h6.86v2.24Z" style="fill:#fbb03b;"/><path d="M175.38,3.56l.77,3.08h.1l.78-3.08h3.09l-2.52,6.37v2.38h-2.8v-2.38l-2.52-6.37h3.09Z" style="fill:#fbb03b;"/><path d="M187.54,10.2h-1.82v2.11h-2.8V3.56h4.41c2.01,0,3.01,1.08,3.01,3.23,0,1.19-.26,2.06-.78,2.63-.2,.21-.47,.4-.81,.55-.35,.15-.75,.22-1.2,.22Zm-1.82-4.4v2.16h.64c.34,0,.58-.04,.74-.11s.23-.23,.23-.48v-.98c0-.25-.08-.41-.23-.48-.15-.07-.4-.1-.74-.1h-.64Z" style="fill:#fbb03b;"/><path d="M196.78,9.01h-2.8v1.06h3.43v2.24h-6.23V3.56h6.16l-.35,2.24h-3.01v1.18h2.8v2.03Z" style="fill:#fbb03b;"/><path d="M198.18,7.94c0-1.6,.3-2.76,.9-3.49,.6-.73,1.68-1.1,3.23-1.1s2.64,.37,3.23,1.1c.6,.73,.9,1.9,.9,3.49,0,.79-.06,1.46-.19,2-.13,.54-.34,1.01-.65,1.41-.31,.4-.73,.7-1.27,.88s-1.21,.28-2.02,.28-1.47-.09-2.02-.28c-.54-.19-.97-.48-1.27-.88-.31-.4-.53-.87-.65-1.41-.13-.54-.19-1.21-.19-2Zm3.01-1.46v3.64h1.16c.38,0,.66-.04,.83-.13,.17-.09,.26-.29,.26-.61v-3.64h-1.18c-.37,0-.65,.04-.82,.13-.17,.09-.26,.29-.26,.61Z" style="fill:#fbb03b;"/><path d="M212.04,10.2h-1.82v2.11h-2.8V3.56h4.41c2.01,0,3.01,1.08,3.01,3.23,0,1.19-.26,2.06-.78,2.63-.2,.21-.47,.4-.81,.55-.35,.15-.75,.22-1.2,.22Zm-1.82-4.4v2.16h.64c.34,0,.58-.04,.74-.11s.23-.23,.23-.48v-.98c0-.25-.08-.41-.23-.48-.15-.07-.4-.1-.74-.1h-.64Z" style="fill:#fbb03b;"/><path d="M221.28,12.31h-5.6V3.56h2.8v6.51h2.8v2.24Z" style="fill:#fbb03b;"/><path d="M227.65,9.01h-2.8v1.06h3.43v2.24h-6.23V3.56h6.16l-.35,2.24h-3.01v1.18h2.8v2.03Z" style="fill:#fbb03b;"/><path d="M229.5,7.87c-.21-.21-.31-.6-.31-1.15s.1-.94,.31-1.16c.21-.22,.61-.34,1.21-.34s1,.11,1.21,.34c.21,.22,.31,.61,.31,1.16s-.1,.93-.31,1.15c-.21,.21-.61,.32-1.21,.32s-1.01-.11-1.21-.32Zm0,4.2c-.21-.21-.31-.6-.31-1.15s.1-.94,.31-1.16c.21-.22,.61-.34,1.21-.34s1,.11,1.21,.34c.21,.22,.31,.61,.31,1.16s-.1,.93-.31,1.15c-.21,.21-.61,.32-1.21,.32s-1.01-.11-1.21-.32Z" style="fill:#fbb03b;"/></g><g><line x1="240" y1="6" x2="241" y2="6" style="fill:none; stroke:#fbb03b; stroke-miterlimit:10;"/><path d="M243,6h56.84c3.4,0,6.16,2.76,6.16,6.16v119.69c0,3.4-2.76,6.16-6.16,6.16H12.16c-3.4,0-6.16-2.76-6.16-6.16V12.16c0-3.4,2.76-6.16,6.16-6.16h.84" style="fill:none; stroke:#fbb03b; stroke-dasharray:0 0 2 2; stroke-miterlimit:10;"/><line x1="14" y1="6" x2="15" y2="6" style="fill:none; stroke:#fbb03b; stroke-miterlimit:10;"/></g></g></g></svg>