<?xml version="1.0" encoding="UTF-8"?><svg xmlns="http://www.w3.org/2000/svg" viewBox="0 0 312 144"><g style="isolation:isolate;"><g id="a"><g><rect x="12" y="76.06" width="26.74" height="8.91" style="fill:#fbb03b;"/><path d="M29.83,27.04h-13.37l-4.46,8.91H29.83v-8.91Z" style="fill:#fbb03b;"/><rect x="189.45" y="28.21" width="4.46" height="57.94" style="fill:#fbb03b;"/><rect x="184.44" y="28.21" width="5.25" height="57.94" style="fill:#fbb03b;"/><g style="mix-blend-mode:multiply;"><rect x="189.45" y="63.86" width="4.46" height="22.28" style="fill:#fbb03b;"/></g><g style="mix-blend-mode:multiply;"><rect x="189.45" y="28.21" width="4.46" height="57.94" style="fill:#fbb03b;"/></g><g style="mix-blend-mode:multiply;"><rect x="148.81" y="77.23" width="40.64" height="8.91" style="fill:#fbb03b;"/></g><g style="mix-blend-mode:multiply;"><rect x="148.79" y="77.23" width="45.12" height="3.89" style="fill:#fbb03b;"/></g><g><path d="M28.79,111.19h-7.46v2.84h9.14v5.97H13.87v-23.32H30.28l-.93,5.97h-8.02v3.13h7.46v5.41Z" style="fill:#444;"/><path d="M45.62,96.68h7.87l-5.78,23.32h-10.9l-5.78-23.32h7.87l3.17,14.81h.34l3.21-14.81Z" style="fill:#444;"/><path d="M69.53,111.19h-7.46v2.84h9.14v5.97h-16.6v-23.32h16.42l-.93,5.97h-8.02v3.13h7.46v5.41Z" style="fill:#444;"/><path d="M87.33,120l-5.71-8.28c-.2-.27-.32-.87-.37-1.79h-.15v10.07h-7.46v-23.32h7.01l5.71,8.28c.2,.27,.32,.87,.37,1.79h.15v-10.07h7.46v23.32h-7.01Z" style="fill:#444;"/><path d="M102.18,120v-23.32h7.46v23.32h-7.46Z" style="fill:#444;"/><path d="M126.43,111.34h-6.34v8.66h-7.46v-23.32h15.3l-.93,5.97h-6.9v3.13h6.34v5.56Z" style="fill:#444;"/><path d="M140.65,96.68l2.05,8.21h.26l2.09-8.21h8.25l-6.72,16.98v6.34h-7.46v-6.34l-6.72-16.98h8.25Z" style="fill:#444;"/><path d="M153.3,108.36c0-4.25,.8-7.36,2.39-9.31,1.59-1.95,4.46-2.93,8.62-2.93s7.03,.98,8.62,2.93c1.59,1.95,2.39,5.06,2.39,9.31,0,2.11-.17,3.89-.5,5.34-.34,1.44-.91,2.7-1.74,3.77-.82,1.07-1.95,1.85-3.4,2.35-1.44,.5-3.23,.75-5.37,.75s-3.93-.25-5.37-.75c-1.44-.5-2.57-1.28-3.39-2.35-.82-1.07-1.4-2.33-1.74-3.77-.34-1.44-.5-3.22-.5-5.34Zm8.02-3.88v9.7h3.1c1.02,0,1.76-.12,2.22-.35,.46-.24,.69-.78,.69-1.62v-9.7h-3.13c-1,0-1.72,.12-2.18,.35-.46,.24-.69,.78-.69,1.62Z" style="fill:#444;"/><path d="M184.08,96.68v17.5h2.65c.95,0,1.59-.12,1.94-.35,.35-.24,.52-.78,.52-1.62v-15.52h7.46v13.1c0,2.11-.14,3.82-.41,5.11-.27,1.29-.78,2.39-1.53,3.28s-1.77,1.52-3.06,1.87c-1.29,.35-2.97,.52-5.04,.52s-3.74-.17-5.02-.52c-1.28-.35-2.29-.97-3.04-1.87s-1.26-1.99-1.53-3.28c-.27-1.29-.41-3-.41-5.11v-13.1h7.46Z" style="fill:#444;"/><path d="M224.26,120h-8.21l-3.06-6.94h-1.6v6.94h-7.46v-23.32h11.75c5.35,0,8.02,2.72,8.02,8.17,0,3.73-1.16,6.19-3.47,7.39l4.03,7.76Zm-12.87-17.35v4.66h1.72c.9,0,1.55-.09,1.96-.28,.41-.19,.62-.62,.62-1.29v-1.53c0-.67-.21-1.1-.62-1.29-.41-.19-1.06-.28-1.96-.28h-1.72Z" style="fill:#444;"/><path d="M241.05,111.19h-7.46v2.84h9.14v5.97h-16.6v-23.32h16.42l-.93,5.97h-8.02v3.13h7.46v5.41Z" style="fill:#444;"/><path d="M258.85,120l-5.71-8.28c-.2-.27-.32-.87-.37-1.79h-.15v10.07h-7.46v-23.32h7.01l5.71,8.28c.2,.27,.32,.87,.37,1.79h.15v-10.07h7.46v23.32h-7.01Z" style="fill:#444;"/><path d="M285.46,102.65h-5.41v17.35h-7.46v-17.35h-5.41v-5.97h18.28v5.97Z" style="fill:#444;"/><path d="M286.84,119.37c-.55-.57-.82-1.59-.82-3.06s.27-2.5,.82-3.1c.55-.6,1.62-.9,3.23-.9s2.68,.3,3.23,.9c.55,.6,.82,1.63,.82,3.1s-.27,2.49-.82,3.06c-.55,.57-1.62,.86-3.23,.86s-2.68-.29-3.23-.86Z" style="fill:#444;"/></g><g style="mix-blend-mode:multiply;"><rect x="209.32" y="54.94" width="13.37" height="4.46" style="fill:#fbb03b;"/></g><g style="mix-blend-mode:multiply;"><rect x="208.21" y="54.94" width="14.48" height="4.46" style="fill:#fbb03b;"/></g><g style="mix-blend-mode:multiply;"><rect x="218.24" y="54.94" width="4.46" height="8.91" style="fill:#fbb03b;"/></g><g style="mix-blend-mode:multiply;"><rect x="208.21" y="59.4" width="14.48" height="4.46" style="fill:#fbb03b;"/></g><rect x="199.85" y="28.21" width="4.46" height="57.94" transform="translate(404.17 114.35) rotate(180)" style="fill:#fbb03b;"/><rect x="204.08" y="28.21" width="5.25" height="57.94" transform="translate(413.4 114.35) rotate(180)" style="fill:#fbb03b;"/><g style="mix-blend-mode:multiply;"><rect x="199.85" y="28.21" width="4.46" height="22.28" transform="translate(404.17 78.69) rotate(180)" style="fill:#fbb03b;"/></g><g style="mix-blend-mode:multiply;"><rect x="199.85" y="28.21" width="4.46" height="57.94" transform="translate(404.17 114.35) rotate(180)" style="fill:#fbb03b;"/></g><rect x="240.23" y="28.21" width="4.74" height="17.83" transform="translate(485.2 74.24) rotate(-180)" style="fill:#fbb03b;"/><rect x="235.5" y="28.21" width="4.74" height="17.83" style="fill:#fbb03b;"/><g style="mix-blend-mode:multiply;"><rect x="204.31" y="28.21" width="40.64" height="8.91" transform="translate(449.26 65.32) rotate(-180)" style="fill:#fbb03b;"/></g><rect x="235.5" y="28.21" width="4.74" height="17.83" style="fill:#fbb03b;"/><g style="mix-blend-mode:multiply;"><rect x="199.85" y="33.22" width="45.12" height="3.89" transform="translate(444.83 70.33) rotate(-180)" style="fill:#fbb03b;"/></g><g style="mix-blend-mode:multiply;"><rect x="258.42" y="54.94" width="13.37" height="4.46" style="fill:#fbb03b;"/></g><g style="mix-blend-mode:multiply;"><rect x="257.31" y="54.94" width="14.48" height="4.46" style="fill:#fbb03b;"/></g><g style="mix-blend-mode:multiply;"><rect x="267.33" y="54.94" width="4.46" height="8.91" style="fill:#fbb03b;"/></g><g style="mix-blend-mode:multiply;"><rect x="257.31" y="59.4" width="14.48" height="4.46" style="fill:#fbb03b;"/></g><rect x="248.95" y="28.21" width="4.46" height="57.94" transform="translate(502.36 114.35) rotate(180)" style="fill:#fbb03b;"/><rect x="253.17" y="28.21" width="5.25" height="57.94" transform="translate(511.59 114.35) rotate(180)" style="fill:#fbb03b;"/><g style="mix-blend-mode:multiply;"><rect x="248.95" y="28.21" width="4.46" height="22.28" transform="translate(502.36 78.69) rotate(180)" style="fill:#fbb03b;"/></g><g style="mix-blend-mode:multiply;"><rect x="248.95" y="28.21" width="4.46" height="57.94" transform="translate(502.36 114.35) rotate(180)" style="fill:#fbb03b;"/></g><rect x="289.33" y="28.21" width="4.74" height="17.83" transform="translate(583.39 74.24) rotate(-180)" style="fill:#fbb03b;"/><rect x="284.59" y="28.21" width="4.74" height="17.83" style="fill:#fbb03b;"/><g style="mix-blend-mode:multiply;"><rect x="253.41" y="28.21" width="40.64" height="8.91" transform="translate(547.45 65.32) rotate(-180)" style="fill:#fbb03b;"/></g><rect x="284.59" y="28.21" width="4.74" height="17.83" style="fill:#fbb03b;"/><g style="mix-blend-mode:multiply;"><rect x="248.95" y="33.22" width="45.12" height="3.89" transform="translate(543.02 70.33) rotate(-180)" style="fill:#fbb03b;"/></g><rect x="148.79" y="28.21" width="4.46" height="57.94" transform="translate(302.03 114.35) rotate(180)" style="fill:#fbb03b;"/><rect x="153.01" y="28.21" width="5.25" height="57.94" transform="translate(311.27 114.35) rotate(180)" style="fill:#fbb03b;"/><g style="mix-blend-mode:multiply;"><rect x="148.79" y="28.21" width="4.46" height="22.28" transform="translate(302.03 78.69) rotate(180)" style="fill:#fbb03b;"/></g><g style="mix-blend-mode:multiply;"><rect x="148.79" y="28.21" width="4.46" height="57.94" transform="translate(302.03 114.35) rotate(180)" style="fill:#fbb03b;"/></g><g style="mix-blend-mode:multiply;"><rect x="153.24" y="28.21" width="40.64" height="8.91" transform="translate(347.13 65.32) rotate(-180)" style="fill:#fbb03b;"/></g><g style="mix-blend-mode:multiply;"><rect x="148.79" y="33.22" width="45.12" height="3.89" transform="translate(342.7 70.33) rotate(-180)" style="fill:#fbb03b;"/></g><rect x="20.91" y="27" width="4.46" height="57.94" transform="translate(46.28 111.94) rotate(180)" style="fill:#fbb03b;"/><rect x="24.58" y="27" width="5.25" height="57.94" transform="translate(54.41 111.94) rotate(180)" style="fill:#fbb03b;"/><g style="mix-blend-mode:multiply;"><rect x="20.91" y="27" width="4.46" height="22.28" transform="translate(46.28 76.28) rotate(180)" style="fill:#fbb03b;"/></g><g style="mix-blend-mode:multiply;"><rect x="20.91" y="27.04" width="4.46" height="57.9" transform="translate(46.28 111.97) rotate(180)" style="fill:#fbb03b;"/></g><g style="mix-blend-mode:multiply;"><rect x="25.37" y="27" width="4.46" height="57.94" transform="translate(55.2 111.94) rotate(180)" style="fill:#fbb03b;"/></g><rect x="80.52" y="27.04" width="4.46" height="57.94" style="fill:#fbb03b;"/><rect x="75.51" y="27.04" width="5.25" height="57.94" style="fill:#fbb03b;"/><g style="mix-blend-mode:multiply;"><rect x="80.52" y="62.69" width="4.46" height="22.28" style="fill:#fbb03b;"/></g><g style="mix-blend-mode:multiply;"><rect x="80.52" y="27.04" width="4.46" height="57.94" style="fill:#fbb03b;"/></g><g style="mix-blend-mode:multiply;"><rect x="39.88" y="76.06" width="40.64" height="8.91" style="fill:#fbb03b;"/></g><g style="mix-blend-mode:multiply;"><rect x="39.85" y="76.06" width="45.12" height="3.89" style="fill:#fbb03b;"/></g><rect x="39.85" y="27.04" width="4.46" height="57.94" transform="translate(84.16 112.01) rotate(180)" style="fill:#fbb03b;"/><rect x="44.08" y="27.04" width="5.25" height="57.94" transform="translate(93.4 112.01) rotate(180)" style="fill:#fbb03b;"/><g style="mix-blend-mode:multiply;"><rect x="39.85" y="27.04" width="4.46" height="22.28" transform="translate(84.16 76.36) rotate(180)" style="fill:#fbb03b;"/></g><g style="mix-blend-mode:multiply;"><rect x="39.85" y="27.04" width="4.46" height="57.94" transform="translate(84.16 112.01) rotate(180)" style="fill:#fbb03b;"/></g><polygon points="112.73 27.04 117.18 27.04 100.54 84.97 96.08 84.97 112.73 27.04" style="fill:#fbb03b;"/><polygon points="116.95 27.04 122.2 27.04 105.55 84.97 100.3 84.97 116.95 27.04" style="fill:#fbb03b;"/><g style="mix-blend-mode:multiply;"><polygon points="112.73 27.04 117.18 27.04 100.54 84.97 96.08 84.97 112.73 27.04" style="fill:#fbb03b;"/></g><g style="mix-blend-mode:multiply;"><rect x="44.31" y="27.04" width="40.64" height="8.91" transform="translate(129.26 62.99) rotate(-180)" style="fill:#fbb03b;"/></g><g style="mix-blend-mode:multiply;"><rect x="39.85" y="32.05" width="45.12" height="3.89" transform="translate(124.83 67.99) rotate(-180)" style="fill:#fbb03b;"/></g><circle cx="122.58" cy="71.88" r="4.18" style="fill:#fbb03b;"/><circle cx="94.73" cy="37.9" r="4.18" style="fill:#fbb03b;"/><circle cx="55.82" cy="43.82" r="4.18" style="fill:#fbb03b;"/><circle cx="175.82" cy="67.82" r="4.18" style="fill:#fbb03b;"/></g><g><path d="M21.5,16.08l.56-3.3c1.23,.31,2.33,.46,3.31,.46s1.77-.04,2.37-.12v-1l-1.8-.16c-1.63-.15-2.74-.54-3.35-1.17-.61-.63-.91-1.57-.91-2.81,0-1.71,.37-2.88,1.11-3.52,.74-.64,2-.96,3.77-.96s3.37,.17,4.8,.5l-.5,3.2c-1.24-.2-2.23-.3-2.98-.3s-1.38,.03-1.9,.1v.98l1.44,.14c1.75,.17,2.95,.59,3.62,1.25,.67,.66,1,1.58,1,2.75,0,.84-.11,1.55-.34,2.13-.23,.58-.5,1.02-.81,1.32-.31,.3-.76,.53-1.33,.69-.57,.16-1.08,.26-1.51,.29s-1.01,.05-1.73,.05c-1.73,0-3.34-.17-4.82-.52Z" style="fill:#fbb03b;"/><path d="M38.28,6c3.2,0,4.8,1.1,4.8,3.3v7h-2l-1.14-1.14c-.39,.45-.91,.81-1.58,1.06s-1.3,.38-1.89,.38-1.07-.05-1.43-.14c-.36-.09-.71-.25-1.06-.48-.76-.48-1.14-1.37-1.14-2.68,0-2.4,1.81-3.6,5.44-3.6h.8v-.72c-.43-.03-.78-.04-1.06-.04-1.51,0-2.8,.18-3.88,.54l-.48-2.86c1.33-.41,2.87-.62,4.62-.62Zm-1.4,6.86v.82h.82c.59,0,.96-.07,1.13-.2,.17-.13,.25-.31,.25-.52v-.94h-.82c-.48,0-.83,.05-1.05,.15-.22,.1-.33,.33-.33,.69Z" style="fill:#fbb03b;"/><path d="M46.38,16.3l-2.5-10h4l1.1,6.5h.2l1.1-6.5h4l-2.5,10h-5.4Z" style="fill:#fbb03b;"/><path d="M59.18,12.9v.7c.4,.04,.8,.06,1.2,.06,1.24,0,2.49-.2,3.76-.6l.48,2.94c-1.49,.4-2.97,.6-4.44,.6-1.87,0-3.22-.44-4.05-1.31-.83-.87-1.25-2.2-1.25-3.99s.42-3.12,1.25-3.99c.83-.87,2.18-1.31,4.04-1.31s3.14,.25,3.85,.76c.71,.51,1.06,1.45,1.06,2.84,0,1.17-.42,2.02-1.27,2.53s-2.39,.77-4.63,.77Zm0-3.14v.82h.82c.48,0,.83-.05,1.05-.15,.22-.1,.33-.33,.33-.69v-.82h-.82c-.48,0-.83,.05-1.05,.15-.22,.1-.33,.33-.33,.69Z" style="fill:#fbb03b;"/></g><g><line x1="15" y1="6" x2="14" y2="6" style="fill:none; stroke:#fbb03b; stroke-miterlimit:10;"/><path d="M12,6c-3.33,.08-6,2.81-6,6.15v119.69c0,3.4,2.76,6.16,6.16,6.16H299.84c3.4,0,6.16-2.76,6.16-6.16V12.16c0-3.4-2.76-6.16-6.16-6.16H74" style="fill:none; stroke:#fbb03b; stroke-dasharray:0 0 2 2; stroke-miterlimit:10;"/><line x1="73" y1="6" x2="72" y2="6" style="fill:none; stroke:#fbb03b; stroke-miterlimit:10;"/></g></g></g></svg>