<?xml version="1.0" encoding="UTF-8"?><svg xmlns="http://www.w3.org/2000/svg" viewBox="0 0 312 144"><g style="isolation:isolate;"><g id="a"><g><rect x="24" y="73.89" width="27" height="7.11" style="fill:#fbb03b;"/><rect x="24" y="30" width="24" height="7.92" style="fill:#fbb03b;"/><rect x="29.33" y="51.62" width="24.67" height="7.92" style="fill:#fbb03b;"/><rect x="195.9" y="30" width="3.92" height="51" style="fill:#fbb03b;"/><rect x="191.49" y="30" width="4.62" height="51" style="fill:#fbb03b;"/><g style="mix-blend-mode:multiply;"><rect x="195.9" y="61.38" width="3.92" height="19.62" style="fill:#fbb03b;"/></g><g style="mix-blend-mode:multiply;"><rect x="195.9" y="30" width="3.92" height="51" style="fill:#fbb03b;"/></g><g style="mix-blend-mode:multiply;"><rect x="160.13" y="73.15" width="35.78" height="7.85" style="fill:#fbb03b;"/></g><g style="mix-blend-mode:multiply;"><rect x="160.11" y="73.16" width="39.72" height="3.43" style="fill:#fbb03b;"/></g><g><path d="M24.6,110.44c0-3.43,.64-5.94,1.93-7.52,1.29-1.58,3.61-2.37,6.96-2.37s5.67,.79,6.96,2.37c1.29,1.58,1.93,4.08,1.93,7.52,0,1.71-.14,3.14-.41,4.31-.27,1.17-.74,2.18-1.4,3.04-.66,.86-1.58,1.5-2.74,1.9-1.17,.4-2.61,.6-4.34,.6s-3.17-.2-4.34-.6c-1.17-.4-2.08-1.03-2.74-1.9-.66-.86-1.13-1.88-1.4-3.04-.27-1.16-.41-2.6-.41-4.31Zm6.48-3.13v7.83h2.5c.82,0,1.42-.1,1.79-.29,.37-.19,.56-.63,.56-1.31v-7.83h-2.53c-.8,0-1.39,.1-1.76,.29-.37,.19-.56,.63-.56,1.31Z" style="fill:#444;"/><path d="M50.21,103.51v1.27h1.81v3.92h-1.81v11.15h-6.03v-11.15h-1.51v-3.92h1.51l.21-1.81c.28-2.31,2.05-3.47,5.3-3.47,.84,0,1.95,.1,3.31,.3l-.33,3.95-2.47-.24Z" style="fill:#444;"/><path d="M59.79,103.51v1.27h1.81v3.92h-1.81v11.15h-6.03v-11.15h-1.51v-3.92h1.51l.21-1.81c.28-2.31,2.05-3.47,5.3-3.47,.84,0,1.95,.1,3.31,.3l-.33,3.95-2.47-.24Z" style="fill:#444;"/><path d="M67.63,118.28l-3.37-13.5h6.03l1.66,9.79h.3l1.66-9.79h6.03l-3.77,15.07c-.56,1.97-1.27,3.29-2.11,3.96-.84,.67-2.06,1.01-3.65,1.01h-5.85v-3.92l2.83-.54c1.45-.32,2.39-.68,2.83-1.08,.24-.22,.44-.49,.6-.81l-.03-.18h-3.16Z" style="fill:#444;"/><path d="M81.5,118.32c-1.26-1.32-1.88-3.32-1.88-6.01s.63-4.7,1.88-6.01c1.25-1.31,3.29-1.97,6.1-1.97s4.85,.66,6.1,1.97c1.25,1.32,1.88,3.32,1.88,6.01s-.63,4.7-1.88,6.01c-1.26,1.32-3.29,1.97-6.1,1.97s-4.85-.66-6.1-1.97Zm4.59-8.33v5.91h.93c.72,0,1.25-.08,1.58-.23,.33-.15,.5-.5,.5-1.04v-5.91h-.93c-.72,0-1.25,.08-1.58,.23-.33,.15-.5,.5-.5,1.04Z" style="fill:#444;"/><path d="M102.52,104.78v11.12h.93c.72,0,1.25-.08,1.58-.23,.33-.15,.5-.5,.5-1.04v-9.85h6.03v15.07h-3.01l-1.75-1.72c-1.21,1.45-2.92,2.17-5.15,2.17-1.79,0-3.09-.38-3.92-1.15s-1.24-2.04-1.24-3.83v-10.55h6.03Z" style="fill:#444;"/><path d="M113.37,104.78h3.01l1.66,1.69c1.19-1.08,2.67-1.8,4.46-2.14l.36,5.69c-.48,.02-1.11,.14-1.88,.36-.77,.22-1.3,.5-1.58,.84v8.62h-6.03v-15.07Z" style="fill:#444;"/><path d="M132.65,114.72v1.05c.6,.06,1.21,.09,1.81,.09,1.87,0,3.76-.3,5.66-.9l.72,4.43c-2.25,.6-4.48,.9-6.69,.9-2.81,0-4.85-.66-6.1-1.97-1.26-1.32-1.88-3.32-1.88-6.01s.63-4.7,1.88-6.01c1.25-1.31,3.28-1.97,6.09-1.97s4.74,.38,5.8,1.14c1.06,.76,1.6,2.19,1.6,4.28,0,1.77-.64,3.04-1.91,3.81-1.28,.77-3.6,1.16-6.98,1.16Zm0-4.73v1.24h1.24c.72,0,1.25-.08,1.58-.23,.33-.15,.5-.5,.5-1.04v-1.24h-1.24c-.72,0-1.25,.08-1.58,.23-.33,.15-.5,.5-.5,1.04Z" style="fill:#444;"/><path d="M145.6,104.78l1.51,1.51c1.87-1.31,3.88-1.96,6.03-1.96,1.41,0,2.51,.31,3.31,.92s1.21,1.46,1.21,2.55v12.05h-6.03v-10.55h-.93c-.68,0-1.2,.08-1.55,.23-.35,.15-.53,.46-.53,.92v9.4h-6.03v-15.07h3.01Z" style="fill:#444;"/><path d="M165.19,114.72v1.05c.6,.06,1.21,.09,1.81,.09,1.87,0,3.76-.3,5.67-.9l.72,4.43c-2.25,.6-4.48,.9-6.69,.9-2.81,0-4.85-.66-6.1-1.97-1.26-1.32-1.88-3.32-1.88-6.01s.63-4.7,1.88-6.01c1.25-1.31,3.28-1.97,6.09-1.97s4.74,.38,5.8,1.14c1.06,.76,1.6,2.19,1.6,4.28,0,1.77-.64,3.04-1.91,3.81-1.28,.77-3.6,1.16-6.98,1.16Zm0-4.73v1.24h1.24c.72,0,1.25-.08,1.58-.23,.33-.15,.5-.5,.5-1.04v-1.24h-1.24c-.72,0-1.25,.08-1.58,.23-.33,.15-.5,.5-.5,1.04Z" style="fill:#444;"/><path d="M175.13,104.78h3.01l1.66,1.69c1.18-1.08,2.67-1.8,4.46-2.14l.36,5.69c-.48,.02-1.11,.14-1.88,.36-.77,.22-1.3,.5-1.58,.84v8.62h-6.03v-15.07Z" style="fill:#444;"/><path d="M184.41,123.91l.78-4.49c1.71,.58,3.71,.87,6,.87,.68,0,1.16-.02,1.45-.06v-1.05c-1.79,0-2.96-.08-3.51-.23-.55-.15-.91-.3-1.08-.45-.17-.15-.27-.28-.3-.38s-.04-.24-.04-.42l.9-2.59c-1.45-.26-2.55-.8-3.3-1.63-.75-.82-1.13-2.11-1.13-3.87s.59-3.08,1.78-3.96,3.11-1.33,5.79-1.33c.96,0,1.82,.06,2.56,.18l2.62-2.02,3.16,3.04-1.72,2.02c.26,.7,.39,1.61,.39,2.71,0,1.59-.4,2.77-1.19,3.54-.79,.77-2.2,1.24-4.23,1.4l-.12,.72c2.17,.12,3.7,.45,4.59,.98s1.34,1.51,1.34,2.94c0,2.43-1.17,3.94-3.53,4.52-1.17,.3-2.74,.45-4.71,.45s-4.14-.3-6.49-.9Zm5.42-14.31v1.96h.93c.72,0,1.25-.08,1.58-.23,.33-.15,.5-.5,.5-1.04v-1.96h-.93c-.72,0-1.25,.08-1.58,.23-.33,.15-.5,.5-.5,1.04Z" style="fill:#444;"/><path d="M202.04,118.28l-3.38-13.5h6.03l1.66,9.79h.3l1.66-9.79h6.03l-3.77,15.07c-.56,1.97-1.27,3.29-2.11,3.96-.84,.67-2.06,1.01-3.65,1.01h-5.84v-3.92l2.83-.54c1.45-.32,2.39-.68,2.83-1.08,.24-.22,.44-.49,.6-.81l-.03-.18h-3.16Z" style="fill:#444;"/><path d="M229,115.32l.36,4.34c-1.04,.42-2.39,.63-4.04,.63-2.81,0-4.85-.66-6.1-1.97-1.26-1.32-1.88-3.32-1.88-6.01s.63-4.7,1.88-6.01c1.25-1.31,3.29-1.97,6.1-1.97,1.75,0,3.09,.21,4.04,.63l-.72,4.1c-1.07-.22-1.91-.33-2.53-.33-1.53,0-2.29,.53-2.29,1.6v5.39c.58,.12,1.33,.18,2.25,.18s1.89-.19,2.94-.57Z" style="fill:#444;"/><path d="M231.85,118.32c-1.26-1.32-1.88-3.32-1.88-6.01s.63-4.7,1.88-6.01c1.25-1.31,3.29-1.97,6.1-1.97s4.85,.66,6.1,1.97c1.25,1.32,1.88,3.32,1.88,6.01s-.63,4.7-1.88,6.01c-1.26,1.32-3.29,1.97-6.1,1.97s-4.85-.66-6.1-1.97Zm4.59-8.33v5.91h.93c.72,0,1.25-.08,1.58-.23,.33-.15,.5-.5,.5-1.04v-5.91h-.93c-.72,0-1.25,.08-1.58,.23-.33,.15-.5,.5-.5,1.04Z" style="fill:#444;"/><path d="M248.57,105.38c1.3-.7,3.07-1.05,5.32-1.05s4.32,.31,6.21,.93l-.69,4.1c-1.57-.44-3.13-.66-4.7-.66-.48,0-1.17,.04-2.05,.12v.96c3.25,0,5.46,.48,6.63,1.45,.58,.48,.99,1.01,1.24,1.58,.24,.57,.36,1.27,.36,2.08s-.1,1.54-.29,2.18c-.19,.64-.48,1.16-.87,1.54-.39,.38-.8,.69-1.22,.93s-.97,.41-1.66,.51c-1.07,.16-2.3,.24-3.71,.24-2.49,0-4.74-.29-6.75-.87l.75-4.28c1.69,.52,3.51,.78,5.48,.78,.9,0,1.73-.04,2.47-.12v-.96c-3.21,0-5.43-.42-6.64-1.27-1.22-.84-1.82-2.24-1.82-4.2s.65-3.29,1.94-3.99Z" style="fill:#444;"/><path d="M260.88,108.66v-3.89h1.51v-2.41l6.03-1.51v3.92h2.08v3.89h-2.08v6.87c.52,.1,1.11,.17,1.78,.21l-.27,4.43c-2.75,0-4.54-.15-5.36-.45-1.02-.36-1.67-.84-1.93-1.45-.16-.36-.24-.78-.24-1.27v-8.35h-1.51Z" style="fill:#444;"/><path d="M272.98,105.38c1.3-.7,3.07-1.05,5.32-1.05s4.32,.31,6.21,.93l-.69,4.1c-1.57-.44-3.13-.66-4.7-.66-.48,0-1.17,.04-2.05,.12v.96c3.25,0,5.46,.48,6.63,1.45,.58,.48,.99,1.01,1.24,1.58,.24,.57,.36,1.27,.36,2.08s-.1,1.54-.29,2.18c-.19,.64-.48,1.16-.87,1.54-.39,.38-.8,.69-1.22,.93s-.97,.41-1.66,.51c-1.07,.16-2.3,.24-3.71,.24-2.49,0-4.74-.29-6.75-.87l.75-4.28c1.69,.52,3.51,.78,5.48,.78,.9,0,1.73-.04,2.47-.12v-.96c-3.21,0-5.43-.42-6.64-1.27-1.22-.84-1.82-2.24-1.82-4.2s.65-3.29,1.94-3.99Z" style="fill:#444;"/></g><g style="mix-blend-mode:multiply;"><rect x="213.4" y="53.54" width="11.77" height="3.92" style="fill:#fbb03b;"/></g><g style="mix-blend-mode:multiply;"><rect x="212.42" y="53.54" width="12.75" height="3.92" style="fill:#fbb03b;"/></g><g style="mix-blend-mode:multiply;"><rect x="221.24" y="53.54" width="3.92" height="7.85" style="fill:#fbb03b;"/></g><g style="mix-blend-mode:multiply;"><rect x="212.42" y="57.46" width="12.75" height="3.92" style="fill:#fbb03b;"/></g><rect x="205.06" y="30" width="3.92" height="51" transform="translate(414.04 111) rotate(180)" style="fill:#fbb03b;"/><rect x="208.78" y="30" width="4.62" height="51" transform="translate(422.18 111) rotate(180)" style="fill:#fbb03b;"/><g style="mix-blend-mode:multiply;"><rect x="205.06" y="30" width="3.92" height="19.62" transform="translate(414.04 79.62) rotate(180)" style="fill:#fbb03b;"/></g><g style="mix-blend-mode:multiply;"><rect x="205.06" y="30" width="3.92" height="51" transform="translate(414.05 111) rotate(180)" style="fill:#fbb03b;"/></g><rect x="240.61" y="30" width="4.17" height="15.69" transform="translate(485.38 75.69) rotate(-180)" style="fill:#fbb03b;"/><rect x="236.44" y="30" width="4.17" height="15.69" style="fill:#fbb03b;"/><g style="mix-blend-mode:multiply;"><rect x="208.98" y="30" width="35.78" height="7.85" transform="translate(453.74 67.85) rotate(-180)" style="fill:#fbb03b;"/></g><rect x="236.44" y="30" width="4.17" height="15.69" style="fill:#fbb03b;"/><g style="mix-blend-mode:multiply;"><rect x="205.06" y="34.41" width="39.72" height="3.43" transform="translate(449.84 72.25) rotate(-180)" style="fill:#fbb03b;"/></g><g style="mix-blend-mode:multiply;"><rect x="256.62" y="53.54" width="11.77" height="3.92" style="fill:#fbb03b;"/></g><g style="mix-blend-mode:multiply;"><rect x="255.63" y="53.54" width="12.75" height="3.92" style="fill:#fbb03b;"/></g><g style="mix-blend-mode:multiply;"><rect x="264.46" y="53.54" width="3.92" height="7.85" style="fill:#fbb03b;"/></g><g style="mix-blend-mode:multiply;"><rect x="255.63" y="57.46" width="12.75" height="3.92" style="fill:#fbb03b;"/></g><rect x="248.28" y="30" width="3.92" height="51" transform="translate(500.48 111) rotate(180)" style="fill:#fbb03b;"/><rect x="252" y="30" width="4.62" height="51" transform="translate(508.61 111) rotate(180)" style="fill:#fbb03b;"/><g style="mix-blend-mode:multiply;"><rect x="248.28" y="30" width="3.92" height="19.62" transform="translate(500.48 79.62) rotate(180)" style="fill:#fbb03b;"/></g><g style="mix-blend-mode:multiply;"><rect x="248.28" y="30" width="3.92" height="51" transform="translate(500.48 111) rotate(180)" style="fill:#fbb03b;"/></g><rect x="283.82" y="30" width="4.17" height="15.69" transform="translate(571.82 75.69) rotate(-180)" style="fill:#fbb03b;"/><rect x="279.66" y="30" width="4.17" height="15.69" style="fill:#fbb03b;"/><g style="mix-blend-mode:multiply;"><rect x="252.2" y="30" width="35.78" height="7.85" transform="translate(540.18 67.85) rotate(-180)" style="fill:#fbb03b;"/></g><rect x="279.66" y="30" width="4.17" height="15.69" style="fill:#fbb03b;"/><g style="mix-blend-mode:multiply;"><rect x="248.28" y="34.41" width="39.72" height="3.43" transform="translate(536.28 72.25) rotate(-180)" style="fill:#fbb03b;"/></g><rect x="160.11" y="30" width="3.92" height="51" transform="translate(324.14 111) rotate(180)" style="fill:#fbb03b;"/><rect x="163.82" y="30" width="4.62" height="51" transform="translate(332.27 111) rotate(180)" style="fill:#fbb03b;"/><g style="mix-blend-mode:multiply;"><rect x="160.11" y="30" width="3.92" height="19.62" transform="translate(324.14 79.62) rotate(180)" style="fill:#fbb03b;"/></g><g style="mix-blend-mode:multiply;"><rect x="160.11" y="30" width="3.92" height="51" transform="translate(324.14 111) rotate(180)" style="fill:#fbb03b;"/></g><g style="mix-blend-mode:multiply;"><rect x="164.03" y="30" width="35.78" height="7.85" transform="translate(363.84 67.85) rotate(-180)" style="fill:#fbb03b;"/></g><g style="mix-blend-mode:multiply;"><rect x="160.11" y="34.41" width="39.72" height="3.43" transform="translate(359.93 72.25) rotate(-180)" style="fill:#fbb03b;"/></g><rect x="42.98" y="30" width="3.96" height="51" transform="translate(89.92 111) rotate(180)" style="fill:#fbb03b;"/><rect x="46.24" y="30" width="4.66" height="51" transform="translate(97.14 111) rotate(180)" style="fill:#fbb03b;"/><g style="mix-blend-mode:multiply;"><rect x="42.98" y="30" width="3.96" height="19.76" transform="translate(89.92 79.76) rotate(180)" style="fill:#fbb03b;"/></g><g style="mix-blend-mode:multiply;"><rect x="42.98" y="30.03" width="3.96" height="50.97" transform="translate(89.92 111.03) rotate(180)" style="fill:#fbb03b;"/></g><g style="mix-blend-mode:multiply;"><rect x="46.94" y="30" width="3.96" height="51" transform="translate(97.84 111) rotate(180)" style="fill:#fbb03b;"/></g><rect x="97.87" y="30" width="3.92" height="51" style="fill:#fbb03b;"/><rect x="93.45" y="30" width="4.62" height="51" style="fill:#fbb03b;"/><g style="mix-blend-mode:multiply;"><rect x="97.77" y="61.51" width="3.9" height="19.49" style="fill:#fbb03b;"/></g><g style="mix-blend-mode:multiply;"><rect x="97.87" y="30" width="3.92" height="51" style="fill:#fbb03b;"/></g><g style="mix-blend-mode:multiply;"><rect x="62.21" y="73.2" width="35.55" height="7.8" style="fill:#fbb03b;"/></g><g style="mix-blend-mode:multiply;"><rect x="62.19" y="73.21" width="39.47" height="3.41" style="fill:#fbb03b;"/></g><rect x="62.07" y="30" width="3.92" height="51" transform="translate(128.06 111) rotate(180)" style="fill:#fbb03b;"/><rect x="65.79" y="30" width="4.62" height="51" transform="translate(136.19 111) rotate(180)" style="fill:#fbb03b;"/><g style="mix-blend-mode:multiply;"><rect x="62.07" y="30" width="3.92" height="19.62" transform="translate(128.06 79.62) rotate(180)" style="fill:#fbb03b;"/></g><g style="mix-blend-mode:multiply;"><rect x="62.07" y="30" width="3.92" height="51" transform="translate(128.06 111) rotate(180)" style="fill:#fbb03b;"/></g><polygon points="130.61 30 134.54 30 119.88 81 115.96 81 130.61 30" style="fill:#fbb03b;"/><polygon points="134.33 30 138.95 30 124.3 81 119.68 81 134.33 30" style="fill:#fbb03b;"/><g style="mix-blend-mode:multiply;"><polygon points="130.61 30 134.54 30 119.88 81 115.96 81 130.61 30" style="fill:#fbb03b;"/></g><g style="mix-blend-mode:multiply;"><rect x="65.99" y="30" width="35.78" height="7.85" transform="translate(167.76 67.85) rotate(-180)" style="fill:#fbb03b;"/></g><g style="mix-blend-mode:multiply;"><rect x="62.07" y="34.41" width="39.72" height="3.43" transform="translate(163.86 72.25) rotate(-180)" style="fill:#fbb03b;"/></g><circle cx="139.29" cy="69.48" r="3.68" style="fill:#fbb03b;"/><circle cx="114.77" cy="39.56" r="3.68" style="fill:#fbb03b;"/><circle cx="76.16" cy="45" r="3.65" style="fill:#fbb03b;"/><circle cx="183.91" cy="64.87" r="3.68" style="fill:#fbb03b;"/></g><g><path d="M24.33,11.5l.36-2.15c.8,.2,1.51,.3,2.15,.3s1.15-.03,1.54-.08v-.65l-1.17-.1c-1.06-.09-1.78-.35-2.18-.76-.39-.41-.59-1.02-.59-1.83,0-1.11,.24-1.87,.72-2.29s1.3-.62,2.45-.62,2.19,.11,3.12,.32l-.32,2.08c-.81-.13-1.45-.19-1.94-.19s-.9,.02-1.24,.06v.64l.94,.09c1.14,.11,1.92,.38,2.35,.81,.43,.43,.65,1.02,.65,1.79,0,.55-.07,1.01-.22,1.38-.15,.38-.32,.66-.53,.86-.2,.2-.49,.34-.86,.45-.37,.1-.7,.17-.98,.19s-.66,.03-1.12,.03c-1.13,0-2.17-.11-3.13-.34Z" style="fill:#fbb03b;"/><path d="M35.23,4.95c2.08,0,3.12,.71,3.12,2.15v4.55h-1.3l-.74-.74c-.25,.29-.59,.52-1.03,.69-.43,.16-.84,.25-1.23,.25s-.7-.03-.93-.09-.46-.16-.69-.31c-.49-.31-.74-.89-.74-1.74,0-1.56,1.18-2.34,3.54-2.34h.52v-.47c-.28-.02-.51-.03-.69-.03-.98,0-1.82,.12-2.52,.35l-.31-1.86c.87-.27,1.87-.4,3-.4Zm-.91,4.46v.53h.53c.38,0,.63-.04,.73-.13s.16-.2,.16-.34v-.61h-.53c-.31,0-.54,.03-.68,.1-.14,.07-.21,.21-.21,.45Z" style="fill:#fbb03b;"/><path d="M40.5,11.64l-1.62-6.5h2.6l.71,4.22h.13l.72-4.22h2.6l-1.62,6.5h-3.51Z" style="fill:#fbb03b;"/><path d="M48.82,9.43v.46c.26,.03,.52,.04,.78,.04,.81,0,1.62-.13,2.44-.39l.31,1.91c-.97,.26-1.93,.39-2.89,.39-1.21,0-2.09-.28-2.63-.85-.54-.57-.81-1.43-.81-2.59s.27-2.03,.81-2.59c.54-.57,1.42-.85,2.63-.85s2.04,.16,2.5,.49c.46,.33,.69,.94,.69,1.85,0,.76-.28,1.31-.83,1.64-.55,.33-1.55,.5-3.01,.5Zm0-2.04v.53h.53c.31,0,.54-.03,.68-.1,.14-.07,.21-.21,.21-.45v-.53h-.53c-.31,0-.54,.03-.68,.1s-.21,.22-.21,.45Z" style="fill:#fbb03b;"/><path d="M58.05,5.14v4.8h.4c.31,0,.54-.03,.68-.1,.14-.06,.21-.21,.21-.45V5.14h2.6v6.5h-1.3l-.75-.74c-.52,.62-1.26,.94-2.22,.94-.77,0-1.33-.17-1.69-.49-.36-.33-.53-.88-.53-1.65V5.14h2.6Z" style="fill:#fbb03b;"/><path d="M63.25,5.14h1.3l.48,.65c.38-.56,1.09-.84,2.12-.84,.53,0,.98,.1,1.37,.3,.38,.2,.67,.47,.87,.82,.37,.65,.56,1.43,.56,2.33,0,1.1-.24,1.93-.72,2.5-.19,.22-.45,.4-.77,.54-.32,.14-.69,.21-1.12,.21h-1.5v1.95l-2.6,.19V5.14Zm2.6,2.18v2.61h.4c.31,0,.54-.03,.68-.1,.14-.06,.21-.21,.21-.45v-2.55h-.4c-.19,0-.34,0-.46,.03-.11,.02-.21,.06-.3,.14-.09,.07-.13,.18-.14,.32Z" style="fill:#fbb03b;"/><path d="M72.54,6.82v-1.68h.65v-1.04l2.6-.65v1.69h.9v1.68h-.9v2.96c.23,.04,.48,.07,.77,.09l-.12,1.91c-1.19,0-1.96-.06-2.31-.19-.44-.16-.72-.36-.83-.62-.07-.16-.1-.34-.1-.55v-3.6h-.65Z" style="fill:#fbb03b;"/><path d="M78.21,10.99c-.54-.57-.81-1.43-.81-2.59s.27-2.03,.81-2.59c.54-.57,1.42-.85,2.63-.85s2.09,.28,2.63,.85c.54,.57,.81,1.43,.81,2.59s-.27,2.03-.81,2.59-1.42,.85-2.63,.85-2.09-.28-2.63-.85Zm1.98-3.59v2.55h.4c.31,0,.54-.03,.68-.1,.14-.06,.21-.21,.21-.45v-2.55h-.4c-.31,0-.54,.03-.68,.1s-.21,.22-.21,.45Z" style="fill:#fbb03b;"/></g><g><line x1="15" y1="6" x2="14" y2="6" style="fill:none; stroke:#fbb03b; stroke-miterlimit:10;"/><path d="M12,6c-3.33,.08-6,2.81-6,6.15v119.69c0,3.4,2.76,6.16,6.16,6.16H299.84c3.4,0,6.16-2.76,6.16-6.16V12.16c0-3.4-2.76-6.16-6.16-6.16H98" style="fill:none; stroke:#fbb03b; stroke-dasharray:0 0 2 2; stroke-miterlimit:10;"/><line x1="97" y1="6" x2="96" y2="6" style="fill:none; stroke:#fbb03b; stroke-miterlimit:10;"/></g></g></g></svg>